<svg width="52" height="52" viewBox="0 0 52 52" fill="none" xmlns="http://www.w3.org/2000/svg">
<path d="M16 38.5C16 32.9737 20.4737 28.5 26 28.5C31.5263 28.5 36 32.9737 36 38.5M36 36.5C36 32.6321 39.1321 29.5 43 29.5C46.8679 29.5 50 32.6321 50 36.5M2 36.6299C2 32.762 5.13213 29.6299 9 29.6299C12.8679 29.6299 16 32.762 16 36.6299M10 2H42C46.4183 2 50 5.58172 50 10V42C50 46.4183 46.4183 50 42 50H10C5.58172 50 2 46.4183 2 42V10C2 5.58172 5.58172 2 10 2ZM31.84 22.0704C31.84 25.3399 29.1895 27.9904 25.92 27.9904C22.6505 27.9904 20 25.3399 20 22.0704C20 18.8009 22.6505 16.1504 25.92 16.1504C29.1895 16.1504 31.84 18.8009 31.84 22.0704ZM46 24.5C46 26.7091 44.2091 28.5 42 28.5C39.7909 28.5 38 26.7091 38 24.5C38 22.2909 39.7909 20.5 42 20.5C44.2091 20.5 46 22.2909 46 24.5ZM14 24.5C14 26.7091 12.2091 28.5 10 28.5C7.79086 28.5 6 26.7091 6 24.5C6 22.2909 7.79086 20.5 10 20.5C12.2091 20.5 14 22.2909 14 24.5Z" stroke="#A8FB5A" stroke-width="3" stroke-miterlimit="10" stroke-linecap="round"/>
</svg>
