<svg width="52" height="52" viewBox="0 0 52 52" fill="none" xmlns="http://www.w3.org/2000/svg">
<path d="M5.04031 45.2244C5.04031 46.0528 5.71188 46.7244 6.54031 46.7244C7.36873 46.7244 8.04031 46.0528 8.04031 45.2244H5.04031ZM16.1006 45.2244C16.1006 46.0528 16.7722 46.7244 17.6006 46.7244C18.429 46.7244 19.1006 46.0528 19.1006 45.2244H16.1006ZM32.0087 47.6076C32.0087 48.436 32.6803 49.1076 33.5087 49.1076C34.3371 49.1076 35.0087 48.436 35.0087 47.6076H32.0087ZM43.069 47.6076C43.069 48.436 43.7405 49.1076 44.569 49.1076C45.3974 49.1076 46.069 48.436 46.069 47.6076H43.069ZM20.3063 20.4773C20.3063 21.3058 20.9779 21.9773 21.8063 21.9773C22.6347 21.9773 23.3063 21.3058 23.3063 20.4773H20.3063ZM31.3666 20.4773C31.3666 21.3058 32.0381 21.9773 32.8666 21.9773C33.695 21.9773 34.3666 21.3058 34.3666 20.4773H31.3666ZM13.9778 34.7239C13.9778 35.8991 13.0727 36.7578 12.0701 36.7578V39.7578C14.8315 39.7578 16.9778 37.4522 16.9778 34.7239H13.9778ZM12.0701 36.7578C11.0675 36.7578 10.1625 35.8991 10.1625 34.7239H7.16248C7.16248 37.4522 9.30876 39.7578 12.0701 39.7578V36.7578ZM10.1625 34.7239C10.1625 33.5488 11.0675 32.6901 12.0701 32.6901V29.6901C9.30876 29.6901 7.16248 31.9957 7.16248 34.7239H10.1625ZM12.0701 32.6901C13.0727 32.6901 13.9778 33.5488 13.9778 34.7239H16.9778C16.9778 31.9957 14.8315 29.6901 12.0701 29.6901V32.6901ZM8.04031 45.2244C8.04031 42.263 10.0507 40.2725 12.0704 40.2725V37.2725C7.97591 37.2725 5.04031 41.0575 5.04031 45.2244H8.04031ZM12.0704 40.2725C14.0902 40.2725 16.1006 42.263 16.1006 45.2244H19.1006C19.1006 41.0575 16.165 37.2725 12.0704 37.2725V40.2725ZM20.3063 36.8439C20.3063 41.6437 16.5679 45.4407 12.0701 45.4407V48.4407C18.3267 48.4407 23.3063 43.1967 23.3063 36.8439H20.3063ZM12.0701 45.4407C7.57239 45.4407 3.83398 41.6437 3.83398 36.8439H0.833984C0.833984 43.1967 5.81362 48.4407 12.0701 48.4407V45.4407ZM3.83398 36.8439C3.83398 32.0441 7.5724 28.2471 12.0701 28.2471V25.2471C5.81362 25.2471 0.833984 30.491 0.833984 36.8439H3.83398ZM12.0701 28.2471C16.5679 28.2471 20.3063 32.0441 20.3063 36.8439H23.3063C23.3063 30.491 18.3267 25.2471 12.0701 25.2471V28.2471ZM40.7327 37.1166C40.7327 38.5711 39.7659 39.3423 39.0392 39.3423V42.3423C41.8399 42.3423 43.7327 39.7774 43.7327 37.1166H40.7327ZM39.0392 39.3423C38.3125 39.3423 37.3457 38.5711 37.3457 37.1166H34.3457C34.3457 39.7774 36.2385 42.3423 39.0392 42.3423V39.3423ZM37.3457 37.1166C37.3457 35.6621 38.3125 34.8909 39.0392 34.8909V31.8909C36.2385 31.8909 34.3457 34.4558 34.3457 37.1166H37.3457ZM39.0392 34.8909C39.7659 34.8909 40.7327 35.6621 40.7327 37.1166H43.7327C43.7327 34.4558 41.8399 31.8909 39.0392 31.8909V34.8909ZM35.0087 47.6076C35.0087 44.6462 37.0191 42.6557 39.0388 42.6557V39.6557C34.9443 39.6557 32.0087 43.4407 32.0087 47.6076H35.0087ZM39.0388 42.6557C41.0586 42.6557 43.069 44.6462 43.069 47.6076H46.069C46.069 43.4407 43.1334 39.6557 39.0388 39.6557V42.6557ZM46.7599 39.2368C46.7599 44.5789 43.0941 48.5 39.0397 48.5V51.5C45.1697 51.5 49.7599 45.7834 49.7599 39.2368H46.7599ZM39.0397 48.5C34.9854 48.5 31.3196 44.5789 31.3196 39.2368H28.3196C28.3196 45.7834 32.9098 51.5 39.0397 51.5V48.5ZM31.3196 39.2368C31.3196 33.8947 34.9854 29.9736 39.0397 29.9736V26.9736C32.9098 26.9736 28.3196 32.6902 28.3196 39.2368H31.3196ZM39.0397 29.9736C43.0941 29.9736 46.7599 33.8947 46.7599 39.2368H49.7599C49.7599 32.6902 45.1697 26.9736 39.0397 26.9736V29.9736ZM20.0486 19.8386L15.4239 26.6741L17.9087 28.3552L22.5333 21.5197L20.0486 19.8386ZM32.0728 21.1129L34.6042 29.4932L37.476 28.6257L34.9446 20.2454L32.0728 21.1129ZM29.9029 37.7391L21.3742 37.265L21.2077 40.2604L29.7363 40.7345L29.9029 37.7391ZM9.64596 15.7421C9.64596 17.1961 8.52297 18.2809 7.2515 18.2809V21.2809C10.2817 21.2809 12.646 18.7492 12.646 15.7421H9.64596ZM7.2515 18.2809C5.98004 18.2809 4.85704 17.1961 4.85704 15.7421H1.85704C1.85704 18.7492 4.22126 21.2809 7.2515 21.2809V18.2809ZM4.85704 15.7421C4.85704 14.2881 5.98004 13.2034 7.2515 13.2034V10.2034C4.22126 10.2034 1.85704 12.7351 1.85704 15.7421H4.85704ZM7.2515 13.2034C8.52297 13.2034 9.64596 14.2881 9.64596 15.7421H12.646C12.646 12.7351 10.2817 10.2034 7.2515 10.2034V13.2034ZM6.36779 19.3751L7.39009 26.9477L10.3631 26.5464L9.34082 18.9738L6.36779 19.3751ZM48.834 6.16987C48.834 7.34505 47.9289 8.20375 46.9263 8.20375V11.2038C49.6877 11.2038 51.834 8.89811 51.834 6.16987H48.834ZM46.9263 8.20375C45.9237 8.20375 45.0187 7.34505 45.0187 6.16987H42.0187C42.0187 8.89811 44.1649 11.2038 46.9263 11.2038V8.20375ZM45.0187 6.16987C45.0187 4.99469 45.9237 4.13598 46.9263 4.13598V1.13598C44.1649 1.13598 42.0187 3.44162 42.0187 6.16987H45.0187ZM46.9263 4.13598C47.9289 4.13598 48.834 4.99469 48.834 6.16987H51.834C51.834 3.44162 49.6877 1.13598 46.9263 1.13598V4.13598ZM44.5278 9.57262L39.611 28.6859L42.5164 29.4333L47.4332 10.32L44.5278 9.57262ZM29.2438 9.97688C29.2438 11.1521 28.3387 12.0108 27.3361 12.0108V15.0108C30.0975 15.0108 32.2438 12.7051 32.2438 9.97688H29.2438ZM27.3361 12.0108C26.3335 12.0108 25.4285 11.1521 25.4285 9.97688H22.4285C22.4285 12.7051 24.5747 15.0108 27.3361 15.0108V12.0108ZM25.4285 9.97688C25.4285 8.8017 26.3335 7.94299 27.3361 7.94299V4.94299C24.5747 4.94299 22.4285 7.24864 22.4285 9.97688H25.4285ZM27.3361 7.94299C28.3387 7.94299 29.2438 8.8017 29.2438 9.97688H32.2438C32.2438 7.24864 30.0975 4.94299 27.3361 4.94299V7.94299ZM23.3063 20.4773C23.3063 17.5159 25.3167 15.5255 27.3364 15.5255V12.5255C23.2419 12.5255 20.3063 16.3104 20.3063 20.4773H23.3063ZM27.3364 15.5255C29.3562 15.5255 31.3666 17.5159 31.3666 20.4773H34.3666C34.3666 16.3104 31.431 12.5255 27.3364 12.5255V15.5255ZM35.5723 12.0968C35.5723 16.8966 31.8339 20.6936 27.3361 20.6936V23.6936C33.5926 23.6936 38.5723 18.4497 38.5723 12.0968H35.5723ZM27.3361 20.6936C22.8384 20.6936 19.1 16.8966 19.1 12.0968H16.1C16.1 18.4497 21.0796 23.6936 27.3361 23.6936V20.6936ZM19.1 12.0968C19.1 7.29703 22.8384 3.5 27.3361 3.5V0.5C21.0796 0.5 16.1 5.74397 16.1 12.0968H19.1ZM27.3361 3.5C31.8339 3.5 35.5723 7.29703 35.5723 12.0968H38.5723C38.5723 5.74397 33.5926 0.5 27.3361 0.5V3.5Z" fill="#A8FB5A"/>
</svg>
