<svg width="52" height="52" viewBox="0 0 52 52" fill="none" xmlns="http://www.w3.org/2000/svg">
<path d="M26 36.17V50M26 36.17L36.16 48.8M26 36.17L15.84 48.8M10.19 10.59H41.8C44.0091 10.59 45.8 12.3809 45.8 14.59V32.17C45.8 34.3791 44.0091 36.17 41.8 36.17H10.19C7.98086 36.17 6.19 34.3791 6.19 32.17V14.59C6.19 12.3809 7.98086 10.59 10.19 10.59ZM6 2H46C48.2091 2 50 3.79086 50 6V6.59C50 8.79914 48.2091 10.59 46 10.59H6C3.79086 10.59 2 8.79914 2 6.59V6C2 3.79086 3.79086 2 6 2Z" stroke="#A8FB5A" stroke-width="3" stroke-miterlimit="10" stroke-linecap="round"/>
</svg>
