<svg width="52" height="52" viewBox="0 0 52 52" fill="none" xmlns="http://www.w3.org/2000/svg">
<path d="M28.7301 23.3333H40.2501C42.9383 23.3333 44.2825 23.3333 45.3092 23.9146C46.2124 24.426 46.9467 25.2419 47.4069 26.2454C47.9301 27.3862 47.9301 28.8797 47.9301 31.8667V50M28.7301 50V10.5333C28.7301 7.54639 28.7301 6.05291 28.2069 4.91205C27.7467 3.90852 27.0124 3.09262 26.1092 2.5813C25.0825 2 23.7383 2 21.0501 2H12.4101C9.72183 2 8.3777 2 7.35092 2.5813C6.44775 3.09262 5.71344 3.90852 5.25325 4.91205C4.73008 6.05291 4.73008 7.54639 4.73008 10.5333V50M50.3301 50H2.33008M13.1301 12.6667H20.3301M13.1301 23.3333H20.3301M13.1301 34H20.3301" stroke="#A8FB5A" stroke-width="3" stroke-linecap="round" stroke-linejoin="round"/>
</svg>
