<svg width="52" height="52" viewBox="0 0 52 52" fill="none" xmlns="http://www.w3.org/2000/svg">
<path d="M12.118 24.42C12.118 21.42 18.188 19 25.668 19M25.668 19C33.148 19 39.218 21.43 39.218 24.42M25.668 19C30.3624 19 34.168 15.1944 34.168 10.5C34.168 5.80558 30.3624 2 25.668 2C20.9735 2 17.168 5.80558 17.168 10.5C17.168 15.1944 20.9735 19 25.668 19ZM9.20797 50H42.128M29.928 35.25C29.928 37.415 28.0207 39.17 25.668 39.17C23.3152 39.17 21.408 37.415 21.408 35.25C21.408 33.085 23.3152 31.33 25.668 31.33C28.0207 31.33 29.928 33.085 29.928 35.25ZM39.668 45.93H11.668C7.26797 45.93 3.66797 43.13 3.66797 39.7L1.66797 30.64C1.66797 27.22 5.26797 24.41 9.66797 24.41H41.668C46.068 24.41 49.668 27.21 49.668 30.64L47.668 39.7C47.668 43.12 44.068 45.93 39.668 45.93Z" stroke="#A8FB5A" stroke-width="3" stroke-miterlimit="10" stroke-linecap="round"/>
</svg>
