<?xml version="1.0" encoding="UTF-8"?>
<svg id="Layer_2" data-name="Layer 2" xmlns="http://www.w3.org/2000/svg" xmlns:xlink="http://www.w3.org/1999/xlink" viewBox="0 0 1437 96.93">
  <defs>
    <style>
      .cls-1 {
        fill: rgb(61, 120, 171);
      }

      .cls-2 {
        fill: none;
      }

      .cls-3 {
        clip-path: url(#clippath);
      }
    </style>
    <clipPath id="clippath">
      <rect class="cls-2" width="1437" height="96.93"/>
    </clipPath>
  </defs>
  <g id="Layer_1-2" data-name="Layer 1">
    <g class="cls-3">
      <path class="cls-1" d="M1270-58.46c-19.78,0-38.75,1.21-56.35,3.41-49.42-22.76-127.56-37.45-215.52-37.45-49.55,0-95.99,4.67-135.93,12.81-39.94-8.14-86.38-12.81-135.93-12.81-53.35,0-103.08,5.41-144.99,14.74-41.91-9.33-91.65-14.74-144.99-14.74-87.63,0-165.52,14.59-214.97,37.2-17.03-2.05-35.29-3.16-54.31-3.16C74.77-58.46,0-32.28,0,0s74.77,58.46,167,58.46c16.25,0,31.95-.82,46.8-2.33,48.85,24.66,130.27,40.81,222.48,40.81,53.35,0,103.08-5.41,144.99-14.74,41.91,9.33,91.65,14.74,144.99,14.74,49.55,0,95.99-4.67,135.93-12.81,39.94,8.14,86.38,12.81,135.93,12.81,92.49,0,174.12-16.25,222.92-41.03,15.48,1.66,31.92,2.55,48.95,2.55C1362.23,58.46,1437,32.28,1437,0s-74.77-58.46-167-58.46Z"/>
    </g>
  </g>
</svg>