<?xml version="1.0" encoding="UTF-8"?>
<svg id="Layer_2" data-name="Layer 2" xmlns="http://www.w3.org/2000/svg" viewBox="0 0 756.01 208.367">
  <defs>
    <style>
      .cls-1 {
        fill: #6faedf;
      }

      .cls-2 {
        fill: #f5f5f5;
      }
    </style>
  </defs>
  <g id="Layer_1-2" data-name="Layer 1">
    <g>
      <path class="cls-2" d="M121.55,110.007c4.32-6.88,8.31-13.97,12-21.21l33.23-65.17c5.23-10.25,15.17-17.25,26.59-18.74.92-.12,1.84-.19,2.76-.23-2.42-.96-4.9-1.78-7.42-2.45-25.61-6.86-52.84,2.66-69.62,23.18l-35.52,43.44c-9.47,11.58-28.49,2.47-24.89-12.06.07-.3.15-.58.24-.84,3.39-10.68,23.42-25.08,33.18-31.59,2.77-1.84,5.74-3.35,8.78-4.68,5.49-2.41,2.99-4.49-2.7-6.21-12.55-3.78-29.36,1.72-43.35,8.4-16.76,8-30.68,20.93-39.92,37.04-.05.09-.11.18-.16.28-5.67,9.9-11.1,20.01-12.38,24.56-15.98,56.82,52.56,95.45,93.95,54.21,2.16-2.16,8.54-8.43,15.61-15.39,2.14-2.11,4.08-4.41,5.84-6.85.12-.16.24-.32.36-.49.73-1,1.9-2.78,3.43-5.21l-.01.01Z"/>
      <path class="cls-1" d="M270.49,77.507c-24.24-12.52-63.64,40.64-89.28,68.16-3.06,3.29-8.01,3.64-11.52.81-1.75-1.41-2.79-3.34-3.08-5.37-.4-2.78.89-5.54,3.05-7.33l53.23-44.19c.58-.48,1.09-1.04,1.53-1.65,13.54-19.13,18.87-30.53,10.13-50-.08-.17-.16-.36-.24-.57-5.78-14.15-19.75-23.22-35-22.19-2.43.16-4.49.34-5.88.52-7.54.98-13.84,9.75-17.28,16.51l-31.87,62.46c-3.81,7.47-7.93,14.78-12.39,21.88-1.56,2.48-2.94,4.59-3.9,5.91-14.04,19.12-14.3,34.05-.91,51.51,9.46,12.34,21,18.91,34.29,19.54,16.31.74,33.82-7.64,48.14-23.06,2.19-2.36,8.3-10.04,14.76-18.17,25.5-32.07,29.16-35.82,32.65-36.81.59-.17,1.19-.25,1.79-.25,1.67,0,3.3.64,4.53,1.83,2.97,2.89,2.87,6.58-.5,19.71-.04.16-.08.31-.12.47-5.87,22.61-21,41.7-41.5,52.89l-29.14,15.91c-2.37,1.29,18.03,2.34,22.83,2.34,39.65.03,82-14.2,96.96-44.05,15.87-31.65-12.97-72.19-41.26-86.8l-.02-.01Z"/>
    </g>
    <g>
      <path class="cls-2" d="M425.82,96.727h-27.2c-9.3,0-16.14-2.7-20.9-7.08-4.15-3.8-6.68-8.94-6.68-14.67,0-6.3,3.23-12.03,8.37-16.02,4.61-3.54,10.83-5.73,19.21-5.73h27.2v11.52h-27.2c-4.69,0-7.61,1.09-9.83,2.83-2.38,1.87-3.84,4.57-3.84,7.46,0,2.64,1.23,5.08,3.23,6.88,2.23,2.06,5.53,3.35,10.45,3.35h27.2v11.45l-.01.01Z"/>
      <path class="cls-2" d="M448.95,96.727c-12.75,0-16.9-4.7-16.9-14.15v-29.34h13.98v28.24c0,3.15,1,4.12,4.61,4.12h36.03v11.13h-37.72Z"/>
      <path class="cls-2" d="M516.34,96.727c-9.3,0-16.13-2.7-20.9-7.08-4.15-3.8-6.68-8.94-6.68-14.67,0-6.3,3.23-12.03,8.37-16.02,4.61-3.54,10.83-5.73,19.21-5.73h10.91c8.37,0,14.6,2.19,19.21,5.73,5.15,3.99,8.38,9.72,8.38,16.02,0,5.73-2.54,10.87-6.69,14.67-4.76,4.38-11.6,7.08-20.9,7.08h-10.91ZM516.34,64.747c-4.69,0-7.61,1.09-9.83,2.83-2.38,1.87-3.84,4.57-3.84,7.46,0,2.64,1.23,5.08,3.23,6.88,2.23,2.06,5.53,3.35,10.45,3.35h10.91c4.92,0,8.22-1.29,10.45-3.35,2-1.8,3.23-4.25,3.23-6.88,0-2.9-1.46-5.6-3.84-7.46-2.23-1.74-5.15-2.83-9.83-2.83h-10.93Z"/>
      <path class="cls-2" d="M579.43,96.727c-13.06,0-18.21-4.18-18.21-13.9v-29.6h13.98v28.31c0,2.7,1.54,4.05,4.99,4.05h21.59c3.46,0,5.15-1.29,5.15-4.05v-28.31h13.98v29.6c0,9.71-5.15,13.9-18.21,13.9h-23.28.01Z"/>
      <path class="cls-2" d="M659.72,53.237c8.38,0,14.6,2.19,19.21,5.73,5.15,3.99,8.37,9.72,8.37,16.02,0,5.73-2.54,10.87-6.68,14.67-4.76,4.38-11.6,7.08-20.9,7.08h-28.04c-2.23,0-3.38-.9-3.38-2.77v-38.02c0-1.8,1.15-2.7,3.38-2.7h28.04v-.01ZM643.2,64.747c-.69,0-1,.26-1,.9v18.72c0,.64.31.9,1,.9h16.52c4.92,0,8.22-1.29,10.45-3.35,2-1.8,3.23-4.25,3.23-6.88,0-2.9-1.46-5.6-3.84-7.46-2.23-1.74-5.15-2.83-9.83-2.83h-16.53Z"/>
      <path class="cls-2" d="M427.21,122.247h-37.34c-1.69,0-2.61.32-3.23.84-.69.58-1.08,1.35-1.08,2.25,0,.97.54,1.8,1.31,2.32.61.45,1.38.64,3,.64h22.82c5.84,0,9.76,1.54,12.52,3.92,2.77,2.38,4.46,5.6,4.46,9.01,0,3.15-1.46,6.18-3.84,8.49-2.84,2.77-6.99,4.5-13.14,4.5h-40.26v-11.13h37.8c2.15,0,3.23-.39,3.92-1.09.54-.51.85-1.22.85-1.99,0-.9-.38-1.74-1.08-2.32-.69-.64-1.69-.96-3.69-.96h-21.13c-6.91,0-10.91-1.54-13.68-3.92s-4.38-5.53-4.38-9.07,1.69-6.69,4.46-9.07,6.68-3.92,13.6-3.92h38.11v11.52-.02Z"/>
      <path class="cls-2" d="M453.18,154.227c-13.06,0-18.21-4.18-18.21-13.9v-29.6h13.98v28.31c0,2.7,1.54,4.05,4.99,4.05h21.59c3.46,0,5.15-1.29,5.15-4.05v-28.31h13.98v29.6c0,9.71-5.15,13.9-18.21,13.9h-23.28.01Z"/>
      <path class="cls-2" d="M533.09,151.137l-15.75-27.34c-.15-.32-.61-.51-1-.51-.61,0-1.23.39-1.23,1.16v29.79h-13.37v-31.85c0-4.89,1.77-7.91,4.84-9.97,2.31-1.54,5.38-2.64,9.07-2.64,6.61,0,10.45,3.28,13.14,8.11l11.75,21.36c.31.64.69.84,1.31.84s1-.19,1.31-.84l11.75-21.36c2.69-4.83,6.53-8.11,13.14-8.11,3.69,0,6.76,1.09,9.07,2.64,3.07,2.06,4.84,5.08,4.84,9.97v31.85h-13.37v-29.79c0-.77-.61-1.16-1.23-1.16-.38,0-.85.19-1,.51l-15.75,27.34c-1.61,2.77-5.07,3.99-8.76,3.99s-7.15-1.22-8.76-3.99h0Z"/>
      <path class="cls-2" d="M620.54,151.137l-15.75-27.34c-.15-.32-.61-.51-1-.51-.61,0-1.23.39-1.23,1.16v29.79h-13.37v-31.85c0-4.89,1.77-7.91,4.84-9.97,2.31-1.54,5.38-2.64,9.07-2.64,6.61,0,10.45,3.28,13.14,8.11l11.75,21.36c.31.64.69.84,1.31.84s1-.19,1.31-.84l11.75-21.36c2.69-4.83,6.53-8.11,13.14-8.11,3.69,0,6.76,1.09,9.07,2.64,3.07,2.06,4.84,5.08,4.84,9.97v31.85h-13.37v-29.79c0-.77-.61-1.16-1.23-1.16-.38,0-.85.19-1,.51l-15.75,27.34c-1.61,2.77-5.07,3.99-8.76,3.99s-7.15-1.22-8.76-3.99h0Z"/>
      <path class="cls-2" d="M691,110.737v43.49h-13.98v-43.49h13.98Z"/>
      <path class="cls-2" d="M756,110.737v11.52h-22.74v31.98h-13.98v-31.98h-22.82v-11.52h59.55-.01Z"/>
    </g>
  </g>
</svg>