<svg width="193" height="177" viewBox="0 0 193 177" fill="none" xmlns="http://www.w3.org/2000/svg">
<path d="M45.6125 147.788H32.0477C27.4104 147.788 24.0001 146.441 21.6267 144.258C19.5563 142.366 18.293 139.796 18.293 136.94C18.293 133.796 19.9032 130.941 22.4701 128.951C24.7705 127.187 27.8742 126.096 32.0513 126.096H45.6162V131.839H32.0513C29.7145 131.839 28.2576 132.383 27.1475 133.252C25.9608 134.183 25.2306 135.531 25.2306 136.973C25.2306 138.288 25.844 139.507 26.8408 140.405C27.9508 141.431 29.6013 142.074 32.0513 142.074H45.6162V147.785L45.6125 147.788Z" fill="#F5F5F5"/>
<path d="M57.1498 147.788C50.7891 147.788 48.7188 145.448 48.7188 140.73V126.096H55.6929V140.183C55.6929 141.756 56.1895 142.235 57.9932 142.235H75.9653V147.785H57.1498V147.788Z" fill="#F5F5F5"/>
<path d="M90.7567 147.788C86.1194 147.788 82.709 146.441 80.3357 144.258C78.2653 142.366 77.002 139.796 77.002 136.94C77.002 133.796 78.6122 130.941 81.1791 128.951C83.4795 127.187 86.5832 126.096 90.7603 126.096H96.2009C100.378 126.096 103.482 127.187 105.782 128.951C108.349 130.941 109.959 133.796 109.959 136.94C109.959 139.796 108.696 142.363 106.626 144.258C104.248 146.441 100.838 147.788 96.2045 147.788H90.764H90.7567ZM90.7567 131.839C88.4198 131.839 86.9629 132.383 85.8529 133.252C84.6662 134.183 83.9359 135.531 83.9359 136.973C83.9359 138.288 84.5493 139.507 85.5462 140.405C86.6562 141.431 88.3066 142.074 90.7567 142.074H96.1972C98.6509 142.074 100.298 141.431 101.408 140.405C102.405 139.507 103.018 138.288 103.018 136.973C103.018 135.527 102.291 134.18 101.101 133.252C99.991 132.387 98.5341 131.839 96.1972 131.839H90.7567Z" fill="#F5F5F5"/>
<path d="M122.224 147.788C115.71 147.788 113.143 145.704 113.143 140.858V126.096H120.117V140.216C120.117 141.563 120.883 142.238 122.607 142.238H133.375C135.098 142.238 135.942 141.596 135.942 140.216V126.096H142.916V140.855C142.916 145.7 140.349 147.785 133.835 147.785H122.224V147.788Z" fill="#F5F5F5"/>
<path d="M162.265 126.096C166.443 126.096 169.546 127.187 171.847 128.951C174.414 130.941 176.024 133.796 176.024 136.94C176.024 139.796 174.76 142.363 172.69 144.258C170.313 146.441 166.903 147.788 162.265 147.788H148.281C147.171 147.788 146.594 147.339 146.594 146.408V127.443C146.594 126.545 147.167 126.096 148.281 126.096H162.265ZM154.028 131.839C153.685 131.839 153.531 131.967 153.531 132.288V141.625C153.531 141.946 153.685 142.074 154.028 142.074H162.265C164.719 142.074 166.366 141.431 167.476 140.405C168.473 139.507 169.086 138.288 169.086 136.973C169.086 135.527 168.36 134.18 167.169 133.252C166.059 132.387 164.602 131.839 162.265 131.839H154.028Z" fill="#F5F5F5"/>
<path d="M28.9506 160.518H10.3286C9.48511 160.518 9.02503 160.679 8.71832 160.934C8.37144 161.223 8.18156 161.61 8.18156 162.059C8.18156 162.541 8.45177 162.957 8.83151 163.213C9.13822 163.439 9.52162 163.534 10.3249 163.534H21.7062C24.62 163.534 26.5735 164.304 27.9537 165.491C29.3339 166.678 30.1774 168.284 30.1774 169.982C30.1774 171.556 29.4508 173.064 28.2604 174.218C26.8437 175.598 24.7734 176.464 21.7062 176.464H1.62736V170.913H20.4794C21.5529 170.913 22.0896 170.72 22.4329 170.366C22.7031 170.11 22.8528 169.756 22.8528 169.373C22.8528 168.923 22.6629 168.507 22.316 168.219C21.9728 167.897 21.4726 167.737 20.4757 167.737H9.93787C6.49098 167.737 4.49733 166.966 3.11712 165.78C1.7369 164.593 0.933594 163.019 0.933594 161.256C0.933594 159.492 1.77706 157.918 3.15728 156.732C4.5375 155.545 6.49098 154.774 9.93787 154.774H28.9433V160.518H28.9506Z" fill="#F5F5F5"/>
<path d="M41.9071 176.464C35.3931 176.464 32.8262 174.379 32.8262 169.533V154.774H39.8003V168.894C39.8003 170.242 40.5671 170.917 42.2905 170.917H53.0584C54.7819 170.917 55.6253 170.274 55.6253 168.894V154.774H62.5994V169.533C62.5994 174.379 60.0325 176.464 53.5185 176.464H41.9071Z" fill="#F5F5F5"/>
<path d="M81.7602 174.921L73.9061 161.283C73.8294 161.123 73.5994 161.028 73.4058 161.028C73.0991 161.028 72.7924 161.221 72.7924 161.605V176.462H66.125V160.579C66.125 158.14 67.005 156.632 68.5385 155.606C69.6887 154.835 71.2223 154.291 73.0589 154.291C76.3561 154.291 78.2695 155.927 79.6132 158.333L85.4773 168.988C85.6306 169.309 85.8205 169.404 86.1272 169.404C86.4339 169.404 86.6238 169.309 86.7771 168.988L92.6412 158.333C93.9813 155.927 95.8983 154.291 99.1954 154.291C101.036 154.291 102.566 154.839 103.716 155.606C105.249 156.632 106.129 158.14 106.129 160.579V176.462H99.462V161.605C99.462 161.221 99.1553 161.028 98.8486 161.028C98.6551 161.028 98.4286 161.123 98.352 161.283L90.4979 174.921C89.6946 176.301 87.9675 176.911 86.1309 176.911C84.2942 176.911 82.5671 176.301 81.7638 174.921H81.7602Z" fill="#F5F5F5"/>
<path d="M125.37 174.921L117.515 161.283C117.439 161.123 117.209 161.028 117.015 161.028C116.708 161.028 116.402 161.221 116.402 161.605V176.462H109.734V160.579C109.734 158.14 110.614 156.632 112.148 155.606C113.298 154.835 114.832 154.291 116.668 154.291C119.966 154.291 121.879 155.927 123.223 158.333L129.087 168.988C129.24 169.309 129.43 169.404 129.737 169.404C130.043 169.404 130.233 169.309 130.387 168.988L136.251 158.333C137.591 155.927 139.508 154.291 142.805 154.291C144.645 154.291 146.175 154.839 147.325 155.606C148.859 156.632 149.739 158.14 149.739 160.579V176.462H143.071V161.605C143.071 161.221 142.765 161.028 142.458 161.028C142.264 161.028 142.038 161.123 141.961 161.283L134.107 174.921C133.304 176.301 131.577 176.911 129.74 176.911C127.904 176.911 126.177 176.301 125.373 174.921H125.37Z" fill="#F5F5F5"/>
<path d="M160.515 154.774V176.467H153.541V154.774H160.515Z" fill="#F5F5F5"/>
<path d="M192.931 154.774V160.518H181.59V176.467H174.616V160.518H163.234V154.774H192.931Z" fill="#F5F5F5"/>
<g clip-path="url(#clip0_5106_2097)">
<g clip-path="url(#clip1_5106_2097)">
<path d="M80.1463 54.6889C86.6525 44.5578 91.9595 32.737 97.8513 21.6469C102.899 11.7899 103.891 8.35707 113.173 2.99851C115.482 1.22501 112.729 0.821594 110.427 0.387733C95.468 -1.88813 83.07 6.18016 74.3137 18.0086C71.7749 21.0913 68.3035 25.3157 65.7129 28.4593C63.2259 31.4583 60.169 35.4315 56.3053 35.6218C51.7902 36.1318 48.2077 31.7551 49.7547 27.2719C51.0426 22.9409 55.9944 18.8763 60.0876 15.6947C62.5227 13.7232 65.6463 12.2085 67.5485 9.95551C69.0141 8.18962 67.4597 7.00221 65.8757 6.68252C61.3088 5.70063 56.3645 7.03266 51.9604 8.53975C40.5247 12.5206 31.2873 20.391 25.3955 30.8646C22.3534 36.0252 19.933 40.8357 19.2817 46.2856C16.691 64.2947 32.5086 78.9774 49.6215 77.1659C56.9714 76.5189 63.67 72.4467 68.9623 67.2937C72.9666 63.4726 77.0894 59.2178 80.0649 54.803L80.1463 54.6812V54.6889Z" fill="#F5F5F5"/>
<path d="M153.49 39.672C139.545 34.4048 131.951 54.3624 121.292 60.817C114.29 64.8207 117.14 56.7296 120.989 51.8886C124.26 47.687 128.146 43.6985 132.025 40.2124C136.096 36.5741 139.767 34.2982 141.425 30.8349C143.771 25.8493 142.283 20.0189 139.737 15.3301C133.187 2.84711 118.531 0.616911 109.323 11.471C107.014 14.1427 104.757 18.0703 102.877 21.6249C96.8959 33.1032 91.5074 44.4749 85.1863 55.5117C77.5107 68.6722 74.3871 80.866 87.6215 91.5298C93.987 96.523 102.58 97.1396 109.812 93.9046C119.493 90.0988 127.591 79.9982 134.978 71.5342C138.094 68.2307 142.883 61.7609 146.961 61.2509C149.352 61.1672 148.967 66.2669 148.39 68.6113C146.451 77.3342 140.981 85.1817 134.245 90.8828C130.974 93.9351 123.55 98.7837 125.541 102.041C127.606 104.607 135.207 103.982 138.908 103.328C150.87 101.197 162.735 96.3327 169.744 87.1531C177.19 77.6691 175.932 64.4249 169.633 54.6212C165.873 48.5091 159.922 42.1229 153.608 39.7101L153.49 39.6644V39.672Z" fill="#5CB3FF"/>
</g>
</g>
<defs>
<clipPath id="clip0_5106_2097">
<rect width="155.859" height="103.906" fill="white" transform="translate(19)"/>
</clipPath>
<clipPath id="clip1_5106_2097">
<rect width="155.859" height="103.906" fill="white" transform="translate(19)"/>
</clipPath>
</defs>
</svg>
