<svg width="1437" height="190" viewBox="0 0 1437 190" fill="none" xmlns="http://www.w3.org/2000/svg">
<mask id="mask0_31_763" style="mask-type:alpha" maskUnits="userSpaceOnUse" x="0" y="0" width="1437" height="190">
<path d="M1102.99 92.4935C1102.99 60.2091 1177.76 34.0375 1270 34.0375C1362.23 34.0376 1437 60.2092 1437 92.4935C1437 124.778 1362.23 150.949 1270 150.949C1177.76 150.949 1102.99 124.778 1102.99 92.4935Z" fill="white"/>
<path d="M7.20247e-06 92.4934C9.6013e-06 60.209 74.7698 34.0374 167.003 34.0374C259.236 34.0374 334.006 60.2091 334.006 92.4934C334.005 124.778 259.236 150.949 167.003 150.949C74.7698 150.949 4.80364e-06 124.778 7.20247e-06 92.4934Z" fill="white"/>
<path d="M455.697 94.7132C455.697 42.4045 576.836 -0.00014951 726.268 -0.00013414C875.699 -0.00011877 996.838 42.4045 996.838 94.7133C996.838 147.022 875.699 189.427 726.268 189.427C576.836 189.427 455.697 147.022 455.697 94.7132Z" fill="white"/>
<path d="M727.562 94.7133C727.562 42.4045 848.701 -0.000121547 998.132 -0.000106176C1147.56 -9.08061e-05 1268.7 42.4046 1268.7 94.7133C1268.7 147.022 1147.56 189.427 998.132 189.427C848.701 189.427 727.562 147.022 727.562 94.7133Z" fill="white"/>
<path d="M165.708 94.7132C165.708 42.4044 286.847 -0.000179338 436.278 -0.000163968C585.71 -0.000148598 706.849 42.4045 706.849 94.7133C706.849 147.022 585.71 189.427 436.278 189.427C286.847 189.427 165.708 147.022 165.708 94.7132Z" fill="white"/>
</mask>
<g mask="url(#mask0_31_763)">
<rect x="1436.89" y="188.943" width="1437" height="249.432" transform="rotate(-180 1436.89 188.943)" fill="white"/>
</g>
</svg>
