<?xml version="1.0" encoding="UTF-8"?>
<svg id="Layer_2" data-name="Layer 2" xmlns="http://www.w3.org/2000/svg" viewBox="0 0 185.64 185.09">
  <defs>
    <style>
      .cls-1 {
        fill: #fff;
      }
    </style>
  </defs>
  <g id="Layer_1-2" data-name="Layer 1">
    <path class="cls-1" d="M158.79,44.56l-.64-.43c-7.93-1.75-16.48-1.72-23.05,3.43-2.2,1.73-5.33-1.36-3.1-3.11,4.16-3.26,8.91-5.06,14.15-5.6,2.41-.24,4.82-.2,7.23.03C142.85,15.95,119.72,0,92.82,0S40.91,17.27,31.02,41.72l-4.17,2.85C11,52.01,0,68.06,0,86.74c0,23.28,17.06,42.57,39.35,46.08,5.85-.71,11.37-2.96,15.69-7.41,1.97-2.03,5.08,1.08,3.11,3.1-1.94,2-4.11,3.58-6.42,4.87h38.2v-22.76l-24.39,3.97,2.74-11.02-24.69-19.22,8.71-4.15-5.52-17.15,15.97,3.75.85-10.05,12.83,11.67-3.72-23.2,10.97,3.85,9.14-14.14,9.14,14.14,10.97-3.85-3.72,23.2,12.83-11.67.85,10.05,15.97-3.75-5.52,17.15,8.71,4.15-24.69,19.22,2.74,11.02-24.39-3.97v22.76h43.29c25.76,0,46.65-20.88,46.65-46.65,0-18.67-11-34.73-26.85-42.17h0Z"/>
    <path class="cls-1" d="M25.35,185.08c-1.25,0-2.39-.31-3.41-.92-1.02-.61-1.84-1.43-2.45-2.45-.61-1.02-.92-2.16-.92-3.41v-19.43c0-1.25.31-2.39.92-3.41.61-1.02,1.43-1.84,2.45-2.45,1.02-.61,2.16-.92,3.41-.92h26.11v7.15h-24.28c-.49,0-.86.12-1.12.37-.26.24-.39.63-.39,1.14v15.67c0,.49.13.87.39,1.12.26.26.63.39,1.12.39h24.28v7.15h-26.11Z"/>
    <path class="cls-1" d="M57.04,185.06v-32.94h26.16c1.25,0,2.39.31,3.41.92,1.02.61,1.85,1.44,2.47,2.48.63,1.04.94,2.17.94,3.39v8.52c0,1.22-.31,2.35-.94,3.39-.63,1.04-1.45,1.86-2.47,2.48-1.02.61-2.16.92-3.41.92l-19.06.04v10.81h-7.1ZM82.84,167.05v-7.84h-18.69v7.84h18.69Z"/>
    <path class="cls-1" d="M102.39,185.08c-1.25,0-2.39-.31-3.42-.92-1.02-.61-1.84-1.43-2.45-2.45-.61-1.02-.92-2.16-.92-3.41v-19.43c0-1.25.31-2.39.92-3.41.61-1.02,1.43-1.84,2.45-2.45,1.02-.61,2.16-.92,3.42-.92h26.11v7.15h-24.28c-.49,0-.86.12-1.12.37-.26.24-.39.63-.39,1.14v15.67c0,.49.13.87.39,1.12.26.26.63.39,1.12.39h24.28v7.15h-26.11Z"/>
    <path class="cls-1" d="M134.09,158.87c0-1.25.3-2.39.92-3.41.61-1.02,1.44-1.84,2.48-2.45,1.04-.61,2.17-.92,3.39-.92h19.38c1.25,0,2.39.3,3.42.92,1.02.61,1.85,1.43,2.48,2.45.63,1.02.94,2.16.94,3.41v26.21h-7.19v-10.63h-18.69v10.63h-7.1v-26.21h0ZM159.88,167.3v-8.06h-18.69v8.06h18.69Z"/>
  </g>
</svg>