<svg width="102" height="61" viewBox="0 0 102 61" fill="none" xmlns="http://www.w3.org/2000/svg">
<path d="M28.8306 21.9554C28.8306 23.1994 28.9658 24.2081 29.2023 24.9477C29.4727 25.6874 29.8106 26.4944 30.2838 27.3685C30.4528 27.6375 30.5203 27.9065 30.5203 28.1419C30.5203 28.4781 30.3176 28.8143 29.8782 29.1505L27.7491 30.5627C27.445 30.7644 27.1408 30.8653 26.8704 30.8653C26.5325 30.8653 26.1945 30.6972 25.8566 30.3946C25.3834 29.8902 24.9779 29.3523 24.6399 28.8143C24.302 28.2427 23.964 27.6039 23.5923 26.8306C20.9562 29.9238 17.6443 31.4705 13.6564 31.4705C10.8176 31.4705 8.55332 30.6635 6.89735 29.0497C5.24137 27.4358 4.39648 25.284 4.39648 22.5942C4.39648 19.7363 5.41035 17.4163 7.47187 15.668C9.53339 13.9196 12.2708 13.0455 15.7517 13.0455C16.9008 13.0455 18.0836 13.1463 19.3341 13.3144C20.5845 13.4825 21.8687 13.7515 23.2205 14.0541V11.5997C23.2205 9.0444 22.6798 7.26242 21.6321 6.22012C20.5507 5.17783 18.7257 4.6735 16.1235 4.6735C14.9407 4.6735 13.724 4.80799 12.4736 5.11059C11.2232 5.41319 10.0065 5.78303 8.82368 6.25375C8.28296 6.4891 7.87741 6.62359 7.64084 6.69084C7.40428 6.75808 7.2353 6.7917 7.10012 6.7917C6.62698 6.7917 6.39041 6.45548 6.39041 5.74941V4.10192C6.39041 3.56396 6.458 3.1605 6.62698 2.92514C6.79596 2.68978 7.10012 2.45443 7.57325 2.21907C8.75609 1.61387 10.1755 1.10954 11.8315 0.706068C13.4875 0.268978 15.2448 0.0672446 17.1036 0.0672446C21.1252 0.0672446 24.0654 0.975046 25.958 2.79065C27.8167 4.60625 28.763 7.36328 28.763 11.0617V21.9554H28.8306ZM15.1096 27.0659C16.2249 27.0659 17.3739 26.8642 18.5906 26.4607C19.8072 26.0573 20.8886 25.3176 21.8011 24.3089C22.3419 23.6701 22.7474 22.964 22.9502 22.1571C23.1529 21.3502 23.2881 20.3751 23.2881 19.232V17.8198C22.3081 17.5845 21.2604 17.3827 20.1789 17.2482C19.0975 17.1137 18.0498 17.0465 17.0022 17.0465C14.7379 17.0465 13.0819 17.4836 11.9667 18.3914C10.8514 19.2992 10.3107 20.5768 10.3107 22.258C10.3107 23.8382 10.7162 25.015 11.5611 25.8219C12.3722 26.6625 13.555 27.0659 15.1096 27.0659ZM42.2474 30.6972C41.639 30.6972 41.2335 30.5963 40.9631 30.3609C40.6928 30.1592 40.4562 29.6885 40.2534 29.0497L32.3115 3.05963C32.1087 2.38718 32.0073 1.95009 32.0073 1.71474C32.0073 1.17678 32.2777 0.87418 32.8184 0.87418H36.1304C36.7725 0.87418 37.2118 0.975047 37.4484 1.2104C37.7188 1.41214 37.9215 1.88285 38.1243 2.52167L43.8019 24.7796L49.074 2.52167C49.243 1.84923 49.4458 1.41214 49.7161 1.2104C49.9865 1.00867 50.4596 0.87418 51.068 0.87418H53.7716C54.4137 0.87418 54.853 0.975047 55.1234 1.2104C55.3938 1.41214 55.6303 1.88285 55.7655 2.52167L61.1052 25.0486L66.9518 2.52167C67.1546 1.84923 67.3912 1.41214 67.6277 1.2104C67.8981 1.00867 68.3374 0.87418 68.9457 0.87418H72.0887C72.6294 0.87418 72.9336 1.14316 72.9336 1.71474C72.9336 1.88285 72.8998 2.05096 72.866 2.25269C72.8322 2.45443 72.7646 2.72341 72.6294 3.09325L64.4847 29.0833C64.282 29.7557 64.0454 30.1928 63.775 30.3946C63.5047 30.5963 63.0653 30.7308 62.4908 30.7308H59.5844C58.9423 30.7308 58.503 30.6299 58.2326 30.3946C57.9622 30.1592 57.7257 29.7221 57.5905 29.0497L52.3522 7.36328L47.1477 29.016C46.9787 29.6885 46.7759 30.1256 46.5056 30.3609C46.2352 30.5963 45.7621 30.6972 45.1538 30.6972H42.2474ZM85.6745 31.605C83.9171 31.605 82.1598 31.4032 80.47 30.9998C78.7802 30.5963 77.4622 30.1592 76.5835 29.6549C76.0428 29.3523 75.671 29.016 75.5358 28.7134C75.4007 28.4108 75.3331 28.0746 75.3331 27.772V26.0573C75.3331 25.3512 75.6034 25.015 76.1104 25.015C76.3131 25.015 76.5159 25.0486 76.7187 25.1159C76.9215 25.1831 77.2256 25.3176 77.5636 25.4521C78.7126 25.9564 79.9631 26.3599 81.2811 26.6289C82.6329 26.8978 83.9509 27.0323 85.3027 27.0323C87.4318 27.0323 89.0878 26.6625 90.2369 25.9228C91.3859 25.1831 91.9942 24.1072 91.9942 22.7287C91.9942 21.7872 91.6901 21.0139 91.0817 20.3751C90.4734 19.7363 89.3244 19.1647 87.6684 18.6268L82.7681 17.1137C80.301 16.3404 78.4761 15.1973 77.3608 13.6843C76.2456 12.2049 75.671 10.5574 75.671 8.80904C75.671 7.3969 75.9752 6.15288 76.5835 5.07697C77.1918 4.00105 78.0029 3.05963 79.0168 2.31994C80.0306 1.54663 81.1797 0.975047 82.5315 0.571579C83.8833 0.168111 85.3027 0 86.7897 0C87.5332 0 88.3105 0.0336223 89.054 0.134489C89.8313 0.235356 90.541 0.369845 91.2507 0.504334C91.9266 0.672446 92.5687 0.840557 93.1771 1.04229C93.7854 1.24402 94.2585 1.44576 94.5965 1.64749C95.0696 1.91647 95.4076 2.18545 95.6103 2.48805C95.8131 2.75703 95.9145 3.12687 95.9145 3.59759V5.17783C95.9145 5.8839 95.6441 6.25375 95.1372 6.25375C94.8668 6.25375 94.4275 6.11926 93.853 5.85028C91.9266 4.9761 89.7637 4.53901 87.3643 4.53901C85.4379 4.53901 83.9171 4.84161 82.8695 5.48043C81.8218 6.11926 81.2811 7.0943 81.2811 8.47282C81.2811 9.41424 81.619 10.2212 82.2949 10.86C82.9708 11.4988 84.2213 12.1376 86.0124 12.7092L90.8114 14.2222C93.2446 14.9955 95.002 16.0715 96.0497 17.45C97.0973 18.8285 97.6043 20.4087 97.6043 22.1571C97.6043 23.6029 97.3001 24.9141 96.7256 26.0573C96.1173 27.2004 95.3062 28.2091 94.2585 29.016C93.2109 29.8566 91.9604 30.4618 90.5072 30.8989C88.9864 31.3696 87.398 31.605 85.6745 31.605Z" fill="white"/>
<path d="M92.0602 47.9459C80.9415 56.1161 64.7872 60.4534 50.8973 60.4534C31.4312 60.4534 13.8913 53.2918 0.64352 41.3895C-0.404138 40.4481 0.542134 39.1705 1.79256 39.9102C16.1218 48.1812 33.7968 53.191 52.0802 53.191C64.4155 53.191 77.9675 50.6357 90.438 45.3906C92.2967 44.55 93.8851 46.601 92.0602 47.9459ZM96.6901 42.7008C95.2707 40.8852 87.295 41.8266 83.6789 42.2637C82.5974 42.3982 82.4285 41.4568 83.4085 40.7507C89.7621 36.3126 100.205 37.5902 101.421 39.0696C102.638 40.5826 101.084 50.9719 95.1355 55.948C94.2231 56.7213 93.3444 56.3178 93.7499 55.3092C95.1017 51.9806 98.1095 44.4828 96.6901 42.7008Z" fill="#FF9900"/>
</svg>
