<svg width="169" height="49" viewBox="0 0 169 49" fill="none" xmlns="http://www.w3.org/2000/svg">
<path d="M29.3569 45.9775C37.4087 44.5642 44.0591 43.3946 44.1355 43.3785L44.2744 43.3493L36.6726 34.3648C32.4916 29.4233 29.0708 25.3611 29.0708 25.3377C29.0708 25.2934 36.9203 3.81529 36.9644 3.73882C36.9792 3.71333 42.321 12.8771 49.9133 25.9524C57.0214 38.1938 62.8817 48.2868 62.9361 48.3814L63.0352 48.5534L38.8761 48.5503L14.7171 48.5472L29.3569 45.9775ZM122.004 43.8046C118.327 43.5704 116.188 41.4897 115.621 37.595C115.47 36.559 115.47 36.5321 115.454 29.8062L115.439 23.2967H117.067H118.694L118.707 29.5931C118.719 35.2679 118.726 35.9332 118.781 36.3324C119.002 37.9526 119.443 39.0421 120.194 39.8241C120.795 40.45 121.499 40.8164 122.473 41.0109C122.933 41.1026 124.24 41.1028 124.659 41.0113C125.647 40.7953 126.438 40.3683 127.136 39.6748C127.932 38.8843 128.521 37.7628 128.806 36.4946L128.902 36.0672L128.913 29.7175L128.923 23.3678H130.585H132.246V33.3497V43.3316H130.602H128.957V41.7479C128.957 40.6718 128.946 40.1681 128.92 40.1764C128.9 40.1832 128.816 40.3115 128.733 40.4617C128.166 41.4887 127.222 42.4278 126.187 42.9936C124.947 43.6718 123.703 43.9129 122.004 43.8046ZM159.331 43.7885C158.033 43.6916 156.666 43.2481 155.548 42.5614C153.194 41.1141 151.801 38.7285 151.393 35.4455C151.251 34.3094 151.234 32.7834 151.352 31.8181C151.615 29.6611 152.468 27.5436 153.683 26.0319C153.995 25.6444 154.701 24.9425 155.091 24.6331C156.144 23.7976 157.376 23.2134 158.684 22.9291C159.446 22.7634 160.788 22.6856 161.598 22.7602C163.631 22.9475 165.495 23.899 166.762 25.3966C168.05 26.9182 168.757 29.0443 168.847 31.6623C168.862 32.0726 168.865 32.7919 168.855 33.2608L168.837 34.1134L161.714 34.1223L154.59 34.1313V34.4471C154.59 35.4087 154.826 36.5038 155.232 37.4356C155.583 38.2391 156.187 39.1165 156.681 39.5411C157.695 40.4117 158.935 40.9328 160.293 41.0582C160.796 41.1047 162.079 41.0558 162.652 40.9682C164.289 40.7183 165.844 40.0806 167.101 39.1447C167.249 39.0345 167.39 38.9317 167.415 38.916C167.452 38.8932 167.46 39.1809 167.459 40.3902L167.458 41.8928L167.122 42.0997C165.7 42.9731 164.072 43.5339 162.348 43.7439C161.834 43.8065 159.946 43.8345 159.331 43.7885ZM165.53 31.1155C165.53 29.5048 164.847 27.7156 163.88 26.7943C163.191 26.1369 162.357 25.735 161.365 25.5825C160.896 25.5103 159.908 25.5381 159.413 25.6374C158.368 25.8472 157.503 26.3039 156.749 27.0443C155.955 27.8236 155.36 28.7701 154.986 29.8486C154.851 30.2364 154.694 30.873 154.645 31.2271L154.622 31.3959H160.076H165.53V31.1155ZM68.9043 43.2871C68.9126 43.2627 71.3315 36.9486 74.2796 29.2558L79.6398 15.2686H81.362H83.0843L83.2272 15.6327C83.6638 16.7454 93.9578 43.3012 93.9578 43.315C93.9578 43.3241 93.1333 43.3313 92.1256 43.3313L90.2934 43.3309L88.8098 39.406L87.3261 35.481L81.3523 35.481L75.3784 35.4809L75.3265 35.6141C75.298 35.6874 74.6641 37.4535 73.9179 39.5388L72.5612 43.3302L70.7252 43.3308C69.2719 43.3313 68.8923 43.3223 68.9043 43.2871ZM86.2357 32.4858C86.2357 32.4796 85.2373 29.79 84.017 26.5091C81.734 20.371 81.6063 20.0016 81.4259 19.0162C81.3413 18.5541 81.2985 18.5413 81.2483 18.9629C81.2124 19.2643 81.0568 19.9387 80.9369 20.3128C80.8774 20.4984 79.8493 23.3021 78.6523 26.5433C77.4552 29.7844 76.4759 32.45 76.4759 32.4667C76.4759 32.4834 78.6718 32.4971 81.3558 32.4971C84.0398 32.4971 86.2357 32.492 86.2357 32.4858ZM95.0661 42.8203V42.3092L101.018 34.1794L106.97 26.0497L101.581 26.0319L96.1922 26.0142L96.1828 24.6554L96.1735 23.2967H103.967H111.762V23.7556V24.2145L105.809 32.3886C102.535 36.8843 99.8566 40.5702 99.8566 40.5795C99.8566 40.5887 102.503 40.5963 105.738 40.5963H111.619V41.9639V43.3315H103.342H95.0661V42.8203ZM138.741 43.3078C138.728 43.2948 138.717 38.787 138.717 33.2904V23.2967H140.344H141.971V25.357C141.971 26.4902 141.984 27.4173 142.001 27.4173C142.018 27.4173 142.098 27.2318 142.177 27.0051C142.543 25.9663 143.177 24.9956 143.994 24.2241C144.731 23.5291 145.572 23.1135 146.565 22.9544C146.843 22.9097 147.079 22.9012 147.637 22.9156C148.337 22.9338 148.704 22.9846 149.13 23.123L149.264 23.1665V24.8442V26.5219L148.879 26.3307C148.2 25.9931 147.531 25.8595 146.725 25.9011C146.201 25.9281 145.857 25.995 145.438 26.1512C144.576 26.4727 143.877 27.0401 143.388 27.8147C142.681 28.9359 142.177 30.3772 142.028 31.7018C142.001 31.9395 141.985 33.8756 141.979 37.6923L141.97 43.3315H140.367C139.486 43.3315 138.754 43.3209 138.741 43.3078ZM0.363281 43.2377C0.363281 43.225 3.9452 37.0467 8.3231 29.508L16.2829 15.8014L25.5592 8.06631C30.6611 3.81202 34.8491 0.326034 34.8659 0.319501C34.8827 0.31332 34.8156 0.481164 34.7168 0.692665C34.618 0.904166 30.0853 10.5645 24.6441 22.16L14.7511 43.2427L7.55718 43.2517C3.60053 43.2566 0.363281 43.2503 0.363281 43.2377Z" fill="#0089D6"/>
</svg>
