<svg width="77" height="61" viewBox="0 0 77 61" fill="none" xmlns="http://www.w3.org/2000/svg">
<path d="M50.9037 16.9005L57.4445 10.3637L57.8804 7.61121C45.9613 -3.22032 27.0145 -1.99214 16.27 10.1739C13.2855 13.5529 11.0713 17.7656 9.89062 22.1158L12.2332 21.7859L25.3144 19.6301L26.3244 18.5978C32.1432 12.2111 41.9819 11.3519 48.7004 16.786L50.9037 16.9005Z" fill="#EA4335"/>
<path d="M66.7621 21.9226C65.2587 16.3894 62.1721 11.4153 57.8805 7.61035L48.7006 16.7848C52.5769 19.9503 54.7852 24.7191 54.6905 29.7208V31.3494C59.2026 31.3494 62.8608 35.0051 62.8608 39.5145C62.8608 44.0242 59.2026 47.5883 54.6905 47.5883H38.3273L36.7207 49.3314V59.1251L38.3273 60.6618H54.6905C66.427 60.7531 76.0155 51.4103 76.1069 39.6808C76.1622 32.5711 72.6547 25.9058 66.7621 21.9226Z" fill="#4285F4"/>
<path d="M21.9853 60.664H38.3256V47.5902H21.9853C20.821 47.5899 19.6935 47.34 18.6348 46.8564L16.3166 47.5673L9.73 54.1042L9.15625 56.3291C12.85 59.1165 17.3568 60.684 21.9853 60.664Z" fill="#34A853"/>
<path d="M21.9859 18.254C10.2492 18.324 0.791759 27.8897 0.861714 39.6193C0.900806 46.1693 3.96176 52.3352 9.15692 56.3282L18.6355 46.8556C14.5231 44.9987 12.6958 40.1621 14.5537 36.0525C16.4113 31.9429 21.2511 30.1167 25.3629 31.9732C27.1749 32.7913 28.6261 34.2418 29.4446 36.0525L38.9232 26.5799C34.8902 21.3108 28.6237 18.2302 21.9859 18.254Z" fill="#FBBC05"/>
</svg>
