<svg width="86" height="88" viewBox="0 0 86 88" fill="none" xmlns="http://www.w3.org/2000/svg">
<path d="M26.4524 72.9512V81.0722C26.4524 83.3789 25.3078 84.6098 23.2279 84.6098C21.1363 84.6098 19.9848 83.3434 19.9848 80.9738V72.9601H17.1073V81.0722C17.1073 85.0637 19.3244 87.3509 23.19 87.3509C27.0921 87.3509 29.3299 85.0198 29.3299 80.9552V72.9512H26.4524ZM37.0393 72.9512L30.7896 87.1298H33.7269L34.9333 84.3839L35.0196 84.1781H41.5122L42.7855 87.1298H45.8027L39.6111 73.0351L39.5554 72.9512L37.0393 72.9512ZM54.1487 72.9512L50.9283 82.707L47.7933 72.9585H44.731L49.6743 87.1387H52.0572L55.2841 77.8235L58.5086 87.1387H60.9117L65.8428 72.9585H62.8588L59.7174 82.707L56.4961 72.9512H54.1487ZM82.3083 72.9512V87.1177H85.1479V72.9512H82.3083ZM0.861328 72.9521V87.1379H3.73966V81.3764H10.2387V87.1379H13.1178V72.9521H10.2387V78.6748H3.73966V72.9521H0.861328ZM68.1635 72.9616V87.1282H78.8764V84.5452H71.0031V81.0326H76.2385V78.4488H71.0031V75.5447H78.602V72.9616H68.1635ZM38.2586 76.5412L40.3107 81.2908H40.3035L40.4431 81.6184H36.0897L36.2276 81.2908L38.2586 76.5412Z" fill="white"/>
<path d="M36.7036 0.453308C35.562 0.554292 32.4768 1.25653 32.4768 1.25653C25.5229 3.05393 23.878 9.36445 23.878 9.36445C23.5384 10.4256 23.3842 11.5131 23.3388 12.5377V13.9322C23.4311 16.0867 23.9102 17.6954 23.9102 17.6954C26.2331 27.9953 37.6541 44.9195 40.1087 48.4747C40.2828 48.6474 40.4223 48.585 40.4223 48.585C40.6872 48.5119 40.6665 48.2578 40.6665 48.2578L40.6715 48.259C44.4522 10.47 36.7036 0.453308 36.7036 0.453308ZM49.1958 0.453308C49.1958 0.453308 41.4135 10.4753 45.197 48.2863H45.2021C45.2313 48.5263 45.4016 48.5763 45.4016 48.5763C45.6548 48.6744 45.7847 48.4312 45.7847 48.4312L45.7859 48.4336C48.3035 44.7876 59.6594 27.9556 61.972 17.6953C61.972 17.6953 63.2258 12.7292 62.0154 9.36425C62.0154 9.36425 60.2963 2.95602 53.3336 1.26255C53.3336 1.26255 51.3269 0.753358 49.1958 0.453308ZM13.2997 11.7977C13.2997 11.7977 6.67392 18.0864 6.3446 24.7535H6.34723V25.7637C6.35227 25.8397 6.35611 25.9167 6.36091 25.9942C6.64632 31.3703 10.6906 34.5521 10.6906 34.5521C17.2069 40.9029 32.9853 48.9212 36.6518 50.7405C36.7031 50.7597 36.8926 50.8216 37.0038 50.6811C37.0038 50.6811 37.0617 50.6372 37.0881 50.5582V50.3908C37.0855 50.3812 37.0804 50.3716 37.0756 50.3611C27.0348 28.4264 13.2997 11.7977 13.2997 11.7977ZM72.5836 11.7977C72.5836 11.7977 58.8888 28.3744 48.8525 50.2646L48.8563 50.2633C48.8563 50.2633 48.7378 50.5171 48.9294 50.6811C48.9294 50.6811 48.9866 50.7242 49.0658 50.7418H49.2046C49.2296 50.7346 49.2563 50.725 49.2827 50.707C53.0488 48.8379 68.705 40.8747 75.1905 34.5531C75.1905 34.5531 79.2977 31.2549 79.5128 25.9593C79.9871 18.6043 72.5836 11.7977 72.5836 11.7977ZM84.9097 33.5741C84.9097 33.5741 62.583 45.5557 51.039 53.3424L51.0429 53.3461C51.0429 53.3461 50.8334 53.4833 50.9066 53.7291C50.9066 53.7291 51.0161 53.9275 51.1756 53.9275C55.3104 53.9347 70.9569 53.9535 71.3492 53.8803C71.3492 53.8803 73.3724 53.7995 75.8723 52.8391C75.8723 52.8391 81.4378 51.0697 84.3285 44.751C84.3285 44.751 85.6495 42.1089 85.6685 38.3971V38.2397C85.6589 36.8083 85.4571 35.2236 84.9097 33.5741ZM0.967427 33.63C-1.06397 39.9187 1.6708 44.986 1.67521 44.9941C4.52518 51.0159 9.96532 52.8405 9.96532 52.8405C12.477 53.8724 14.9892 53.9437 14.9892 53.9437C15.3815 54.0154 30.6112 53.9509 34.6919 53.9317C34.8646 53.9304 34.9596 53.7568 34.9596 53.7568C34.9716 53.7376 34.9821 53.7184 34.9869 53.7009V53.5436C34.9531 53.4383 34.8629 53.3639 34.8629 53.3639L34.8656 53.3627C23.3274 45.5785 0.967427 33.63 0.967427 33.63ZM34.2258 55.865L7.96097 56.786C10.8093 61.8635 15.6062 65.8096 20.6031 64.5976C24.0515 63.7355 31.8637 58.2864 34.4427 56.4451L34.4341 56.4379C34.6346 56.2578 34.563 56.1132 34.563 56.1132C34.497 55.8774 34.2258 55.8776 34.2258 55.8776L34.2258 55.865ZM51.6216 55.8842L51.619 55.8938C51.619 55.8938 51.3884 55.923 51.324 56.0957C51.324 56.0957 51.2679 56.3318 51.4231 56.449L51.4205 56.4514C53.9351 58.2546 61.558 63.584 65.2303 64.6188C65.2303 64.6188 65.7866 64.8081 66.719 64.8419H67.2793C69.7397 64.7555 74.026 63.4916 77.9208 56.7996L51.6216 55.8842Z" fill="#CF0A2C"/>
</svg>
