<svg width="115" height="47" viewBox="0 0 115 47" fill="none" xmlns="http://www.w3.org/2000/svg">
<path d="M0.105469 0.436523V3.58373H22.2953V0.436523H0.105469ZM25.4392 0.436523V3.58373H57.0609C57.0609 3.58373 53.8309 0.436523 49.553 0.436523H25.4392ZM63.2641 0.436523V3.58373H82.3947L81.2592 0.436523H63.2641ZM96.1103 0.436523L94.9748 3.58373H113.932V0.436523H96.1103ZM0.105469 6.55705V9.70426H22.2953V6.55705H0.105469ZM25.4392 6.56154V9.70437H60.7302C60.7302 9.70437 60.3181 7.28213 59.5991 6.56154H25.4392ZM63.2641 6.56154V9.70437H84.4921L83.4412 6.56154H63.2641ZM93.8392 6.56154L92.7883 9.70437H113.932V6.56154H93.8392ZM6.48229 12.6776V15.8293H16.0921V12.6776H6.48229ZM31.8162 12.6776V15.8293H41.426V12.6776H31.8162ZM50.7731 12.6776V15.8293H60.383C60.383 15.8293 60.9931 14.1649 60.9931 12.6776H50.7731ZM69.641 12.6776V15.8293H86.6787L85.5431 12.6776H69.641ZM91.7463 12.6776L90.6063 15.8293H107.729V12.6776H91.7463ZM6.48229 18.8027V21.9499H16.0921V18.8027H6.48229ZM31.8162 18.8027V21.9499H56.3617C56.3617 21.9499 58.4151 20.3351 59.0692 18.8027H31.8162ZM69.641 18.8027V21.9499H79.2509V20.198L79.861 21.9499H97.4642L98.1188 20.198V21.9499H107.729V18.8027H89.6889L88.7316 21.4684L87.7696 18.8027H69.641ZM6.48229 24.9232V28.0704H16.0921V24.9232H6.48229ZM31.8162 24.9232V28.0704H59.0692C58.415 26.5431 56.3617 24.9232 56.3617 24.9232H31.8162ZM69.641 24.9232V28.0704H79.2509V24.9232H69.641ZM80.9965 24.9232L82.1587 28.0704H95.3577L96.4621 24.9232H80.9965ZM98.1187 24.9232V28.0704H107.729V24.9232H98.1187ZM6.48229 31.0438V34.1909H16.0921V31.0438H6.48229ZM31.8162 31.0438V34.1909H41.426V31.0438H31.8162ZM50.7731 31.0438V34.1909H60.993C60.993 32.7056 60.3829 31.0438 60.3829 31.0438H50.7731ZM69.641 31.0438V34.1909H79.2509V31.0438H69.641ZM83.1785 31.0438L84.3052 34.1909H93.1535L94.2891 31.0438H83.1785ZM98.1187 31.0438V34.1909H107.729V31.0438H98.1187ZM0.279091 37.1643V40.316H22.469V37.1643H0.279091ZM25.4392 37.1643V40.316H59.5991C60.3181 39.5944 60.7302 37.1643 60.7302 37.1643H25.4392ZM63.4378 37.1643V40.316H79.2509V37.1643H63.4378ZM85.3649 37.1643L86.5227 40.316H91.0248L92.1113 37.1643H85.3649ZM98.1187 37.1643V40.316H114.105V37.1643H98.1187ZM0.279091 43.2893V46.4365H22.469V43.2893H0.279091ZM25.4392 43.2893V46.432H49.553C53.8309 46.432 57.0609 43.2893 57.0609 43.2893H25.4392ZM63.4378 43.2893V46.4365H79.2509V43.2893H63.4378ZM87.5603 43.2893L88.6737 46.4277L88.8652 46.432L89.9963 43.2893H87.5603ZM98.1187 43.2893V46.4365H114.105V43.2893H98.1187Z" fill="#1F70C1"/>
</svg>
