<svg width="179" height="25" viewBox="0 0 179 25" fill="none" xmlns="http://www.w3.org/2000/svg">
<path d="M77.0117 15.9231H88.7831L82.5588 5.91176L71.1351 24.0127H65.9359L79.831 2.26962C80.4352 1.3911 81.442 0.860352 82.5588 0.860352C83.6389 0.860352 84.6458 1.37281 85.2316 2.23301L99.1816 24.0127H93.9824L91.5293 19.9679H79.6113L77.0117 15.9231ZM131.018 19.9679V1.07998H126.606V21.8164C126.606 22.3838 126.825 22.9329 127.246 23.3538C127.667 23.7748 128.235 24.0127 128.857 24.0127H148.977L151.576 19.9679H131.018ZM58.0273 16.582C62.3112 16.582 65.7896 13.1229 65.7896 8.84013C65.7896 4.55741 62.3112 1.07998 58.0273 1.07998H38.7261V24.0127H43.1363V5.12478H57.7344C59.7848 5.12478 61.4324 6.79027 61.4324 8.84013C61.4324 10.89 59.7848 12.5555 57.7344 12.5555L45.2966 12.5372L58.4666 24.0127H64.8742L56.0136 16.582H58.0273ZM11.5768 24.0127C5.2443 24.0127 0.105469 18.8881 0.105469 12.5555C0.105469 6.2229 5.2443 1.07998 11.5768 1.07998H24.9097C31.244 1.07998 36.3792 6.2229 36.3792 12.5555C36.3792 18.8881 31.244 24.0127 24.9097 24.0127H11.5768ZM24.6132 19.9679C28.7158 19.9679 32.0386 16.6552 32.0386 12.5555C32.0386 8.45578 28.7158 5.12478 24.6132 5.12478H11.8715C7.77068 5.12478 4.44604 8.45578 4.44604 12.5555C4.44604 16.6552 7.77068 19.9679 11.8715 19.9679H24.6132ZM108.39 24.0127C102.056 24.0127 96.9115 18.8881 96.9115 12.5555C96.9115 6.2229 102.056 1.07998 108.39 1.07998H124.226L121.644 5.12478H108.683C104.582 5.12478 101.25 8.45578 101.25 12.5555C101.25 16.6552 104.582 19.9679 108.683 19.9679H124.592L121.992 24.0127H108.39ZM162.341 19.9679C158.954 19.9679 156.08 17.6984 155.201 14.5687H174.058L176.657 10.5239H155.201C156.08 7.41255 158.954 5.12478 162.341 5.12478H175.284L177.902 1.07998H162.048C155.714 1.07998 150.57 6.2229 150.57 12.5555C150.57 18.8881 155.714 24.0127 162.048 24.0127H175.65L178.25 19.9679H162.341Z" fill="#EA1B22"/>
</svg>
