<svg width="91" height="72" viewBox="0 0 91 72" fill="none" xmlns="http://www.w3.org/2000/svg">
<path d="M62.5785 68.385C61.6773 69.4127 60.3755 70.0017 59.0112 70.0142C56.708 70.0142 55.231 68.4226 55.231 65.9663C55.231 63.4599 56.6455 61.9059 58.9236 61.9059C60.2504 61.931 61.5146 62.4698 62.4534 63.4098C62.4784 63.4348 62.5285 63.4348 62.5535 63.4098C62.566 63.3972 62.5785 63.3722 62.5785 63.3596V62.0939C61.6523 61.2542 60.3004 60.7529 58.9236 60.7529C57.4966 60.7529 56.2825 61.2542 55.4188 62.2067C54.5551 63.1591 54.117 64.4499 54.117 65.9914C54.117 69.1244 56.0822 71.2299 59.0112 71.2299C60.4131 71.2299 61.7774 70.716 62.7037 69.8513V68.4602C62.7037 68.4226 62.6661 68.385 62.6286 68.385C62.6161 68.36 62.591 68.3725 62.5785 68.385ZM8.27971 60.991H0.21875V62.0813H3.64841V70.9416H4.83753V62.0813H8.26719L8.27971 60.991ZM86.7113 70.0393C85.5848 70.0393 84.3581 69.1996 84.3581 67.3574C84.3581 66.0039 85.0716 64.5502 86.6362 64.5502C88.3761 64.5502 89.0019 66.029 89.0019 67.2947C89.0019 68.6733 88.2134 70.0393 86.7113 70.0393ZM89.0395 61.0036V64.3873C88.4262 63.7231 87.3998 63.4724 86.6613 63.4724C85.7225 63.4474 84.8087 63.8233 84.1579 64.5126C83.5195 65.2019 83.1815 66.1543 83.1815 67.2697C83.1815 69.9265 84.9464 71.1171 86.6863 71.1171C87.7002 71.1171 88.5388 70.7536 89.0395 70.102V70.9416H90.2161V60.991L89.0395 61.0036ZM64.2808 70.9667H65.4825V61.0161H64.2808V70.9667ZM23.3877 67.3073C23.3877 69.6007 24.8648 71.1296 27.0677 71.1296C27.9815 71.1421 28.8827 70.8664 29.6463 70.3401V69.1244C29.6463 69.0869 29.6087 69.0493 29.5712 69.0493C29.5586 69.0493 29.5336 69.0493 29.5211 69.0618C28.745 69.7636 27.6185 70.0393 27.1303 70.0393C25.5407 70.0393 24.5018 68.9741 24.5018 67.3073C24.5018 65.6405 25.5282 64.5753 27.1303 64.5753C27.6185 64.5753 28.7075 64.7131 29.5211 65.4149C29.5461 65.44 29.5962 65.44 29.6212 65.4149C29.6337 65.4024 29.6337 65.3898 29.6337 65.3648V64.2619C29.1456 63.9486 28.1192 63.485 27.0552 63.485C24.8648 63.485 23.3877 65.0264 23.3877 67.3073ZM8.86801 66.618V66.5929C8.90556 65.9789 9.19345 65.4024 9.6691 65.0139C10.0696 64.688 10.5828 64.5126 11.096 64.5251C12.3978 64.5251 13.2364 65.3147 13.299 66.5929V66.618H8.86801ZM11.1336 63.485C9.05576 63.485 7.70393 64.9763 7.70393 67.2822C7.77903 69.6884 9.14338 71.1171 11.3464 71.1171C12.3603 71.1296 13.3366 70.7536 14.0876 70.0644V68.8738C14.0876 68.8362 14.0501 68.7986 14.0125 68.8111C14 68.8111 13.9749 68.8237 13.9624 68.8362C13.4367 69.538 12.1725 70.102 11.3964 70.102C10.6579 70.102 9.95699 69.8513 9.56896 69.4628C9.10583 68.9741 8.85549 68.3224 8.85549 67.6456H14.413V67.5579C14.413 65.9914 14.1502 65.1016 13.4618 64.3873C12.911 63.7983 12.1224 63.4975 11.1336 63.485ZM80.6406 67.3699C80.6406 69.35 79.5015 70.0518 78.5252 70.0518C77.5739 70.0518 76.5725 69.4002 76.5725 68.1845V63.6479H75.446V68.1595C75.446 69.9014 76.6977 71.1296 78.4751 71.1296C79.464 71.1296 80.2275 70.7912 80.7282 70.1646V70.9541H81.8047V63.6479H80.6531L80.6406 67.3699ZM19.1069 63.485C18.1932 63.485 17.4296 63.7857 16.9039 64.3497V63.6479H15.7774V70.9541H16.929V66.7935C16.929 66.1042 17.1418 65.5152 17.5173 65.1517C17.9303 64.7507 18.4936 64.5377 19.0694 64.5753C19.9706 64.6003 20.8718 65.2019 20.8718 66.4676V70.9541H22.0234V66.4175C22.0234 65.5152 21.7355 64.7632 21.1973 64.2494C20.6841 63.7481 19.9581 63.485 19.1069 63.485ZM31.9118 66.618V66.5929C31.9494 65.9789 32.2373 65.4024 32.7254 65.0139C33.126 64.688 33.6392 64.5126 34.1524 64.5251C35.4541 64.5251 36.2928 65.3147 36.3554 66.5929V66.618H31.9118ZM34.1774 63.485C32.0996 63.485 30.7478 64.9763 30.7478 67.2822C30.8229 69.6884 32.1872 71.1171 34.3902 71.1171C35.4041 71.1296 36.3804 70.7536 37.1314 70.0644V68.8738C37.1314 68.8362 37.0939 68.7986 37.0563 68.8111C37.0313 68.8111 37.0188 68.8237 37.0063 68.8362C36.4805 69.538 35.2163 70.102 34.4403 70.102C33.7018 70.102 33.0008 69.8513 32.6128 69.4628C32.1497 68.9741 31.8993 68.3224 31.8993 67.6456H37.4569V67.5579C37.4569 65.9914 37.194 65.1016 36.5056 64.3873C35.9548 63.7983 35.1663 63.485 34.1774 63.485ZM42.1257 63.485C41.212 63.485 40.4484 63.7857 39.9227 64.3497V63.6479H38.7962V70.9541H39.9478V66.7935C39.9478 66.1042 40.1605 65.5152 40.5361 65.1517C40.9491 64.7507 41.5124 64.5377 42.0882 64.5753C42.9894 64.6003 43.8906 65.2019 43.8906 66.4676V70.9541H45.0422V66.4175C45.0422 65.5152 44.7543 64.7632 44.2161 64.2494C43.7029 63.7481 42.9769 63.485 42.1257 63.485ZM48.5845 61.7054H47.4079V63.6604H46.2063V64.7256H47.4079V69.7511C47.4079 70.1897 47.5331 70.5155 47.7959 70.7411C48.0838 70.9667 48.4468 71.0795 48.8098 71.0669C49.323 71.0168 49.8237 70.904 50.3118 70.7286V69.6257C50.3118 69.5881 50.2743 69.5505 50.2367 69.5505C50.2242 69.5505 50.2242 69.5505 50.2117 69.5505C49.8112 69.6884 49.3981 69.8012 48.985 69.8889C48.8599 69.914 48.7597 69.9265 48.6846 69.8639C48.6221 69.8012 48.597 69.7135 48.6095 69.6383V64.7256H50.7124V63.6604H48.6095L48.5845 61.7054ZM70.5894 70.0268C69.1249 70.0268 68.1486 68.9239 68.1486 67.3073C68.1486 65.6906 69.1374 64.6003 70.5894 64.6003C72.0414 64.6003 73.0302 65.6906 73.0302 67.3198C73.0302 68.949 72.0539 70.0268 70.5894 70.0268ZM70.5894 63.51C68.474 63.51 67.0596 65.0389 67.0596 67.3198C67.0596 69.6007 68.4866 71.1296 70.6019 71.1296C72.7173 71.1296 74.1442 69.6007 74.1442 67.3198C74.1442 65.0389 72.7173 63.4975 70.5894 63.51Z" fill="white"/>
<path d="M69.988 40.4888C68.899 41.5791 66.7211 43.2083 62.9159 43.2083H39.5091C46.5812 36.4284 52.5768 30.7262 53.1276 30.1748C54.1665 29.1221 55.2555 28.132 56.3945 27.1921C59.1232 24.7483 61.2887 24.4726 63.2038 24.4726C65.92 24.4726 68.0979 25.5629 70.013 27.1796C73.8057 30.7137 73.8057 36.9673 69.988 40.4888ZM74.6193 22.8309C71.7404 19.7229 67.6974 17.9434 63.4541 17.9434C59.649 17.9434 56.382 19.3094 53.3779 21.4774C52.2764 22.5677 50.6492 23.6455 49.2849 25.2747C48.1959 26.365 24.7891 49.1736 24.7891 49.1736C26.1534 49.4493 27.7806 49.4493 29.145 49.4493H58.8228C61.0008 49.4493 62.6405 49.4493 64.2677 49.1736C68.0228 48.8979 71.5652 47.369 74.3439 44.825C80.6024 38.8596 80.6024 28.8213 74.6193 22.8309Z" fill="#00A3FF"/>
<path d="M36.5057 21.2017C33.5142 19.0337 30.5101 17.9434 26.9803 17.9434C22.737 17.9434 18.694 19.7229 15.8151 22.8309C9.75687 29.0594 9.88204 39.0225 16.0905 45.1007C18.8067 47.5444 21.5354 48.8979 24.8023 49.1736L31.0608 43.1958H27.5185C23.9762 42.9326 21.7982 41.8423 20.4464 40.4888C16.6913 36.7793 16.5786 30.7638 20.171 26.9164C22.0736 25.0115 24.2516 24.1969 26.9803 24.1969C28.62 24.1969 31.0608 24.4601 33.5142 26.9039C34.6031 27.9942 37.5947 30.1623 38.6837 31.2526H38.9465L43.0271 27.1796V26.9039C41.137 25.0115 38.1455 22.5677 36.5057 21.2017Z" fill="#00C8DC"/>
<path d="M65.095 14.4213C62.0033 6.11248 54.08 0.585774 45.218 0.573242C34.6035 0.573242 26.1671 8.44347 24.5273 18.2186C25.3409 18.2186 26.1671 17.9554 27.2561 17.9554C28.345 17.9554 29.7094 18.2186 30.7984 18.2186C32.1627 11.4261 38.1459 6.53857 45.2305 6.53857C51.2136 6.53857 56.3957 10.0727 58.8365 15.2234C58.8365 15.2234 59.1119 15.4991 59.1119 15.2234C61.0019 14.9602 63.1799 14.4213 65.095 14.4213Z" fill="#006EFF"/>
</svg>
