<svg width="185" height="50" viewBox="0 0 185 50" fill="none" xmlns="http://www.w3.org/2000/svg">
<g clip-path="url(#clip0_5019_2175)">
<path fill-rule="evenodd" clip-rule="evenodd" d="M35.6556 28.7236C35.6847 29.3316 35.4825 29.9286 35.0882 30.3994C34.6938 30.8701 34.1352 31.1813 33.5202 31.2727C31.0859 31.6906 25.9752 31.9448 21.6937 31.9448C17.4122 31.9448 12.3015 31.6906 9.86716 31.2727C9.25249 31.1805 8.69436 30.8692 8.30015 30.3986C7.90595 29.928 7.7035 29.3315 7.73176 28.7236V20.7872C7.73916 20.1879 7.95454 19.6088 8.34255 19.145C8.73056 18.6812 9.26816 18.3602 9.86716 18.2346C11.1011 18.0728 12.3449 17.9937 13.5899 17.9978C13.7145 18.0003 13.8374 18.0277 13.9509 18.0782C14.0645 18.1287 14.1663 18.2012 14.2502 18.2915C14.3341 18.3818 14.3984 18.4878 14.4391 18.6032C14.4797 18.7185 14.4959 18.8408 14.4867 18.9625V24.5134C17.0029 24.5134 19.1882 24.3637 21.7115 24.3637C24.2348 24.3637 26.42 24.503 28.9327 24.5134V18.9625C28.9235 18.8408 28.9397 18.7185 28.9804 18.6032C29.021 18.4878 29.0853 18.3818 29.1692 18.2915C29.2531 18.2012 29.3549 18.1287 29.4685 18.0782C29.582 18.0277 29.7049 18.0003 29.8296 17.9978C31.0698 17.9945 32.3088 18.0736 33.538 18.2346C34.137 18.3602 34.6746 18.6812 35.0626 19.145C35.4506 19.6088 35.666 20.1879 35.6734 20.7872L35.6556 28.7236ZM21.7044 4.83439C17.5902 4.80887 13.5609 5.97929 10.1274 8.19725C6.69386 10.4152 4.01074 13.5808 2.41821 17.2927C0.82567 21.0046 0.395445 25.0957 1.18208 29.0471C1.96871 32.9986 3.93676 36.6325 6.83673 39.4881C9.73669 42.3438 13.4379 44.2925 17.4712 45.0874C21.5045 45.8822 25.6882 45.4872 29.4918 43.9526C33.2954 42.418 36.5476 39.8128 38.8362 36.4673C41.1247 33.1219 42.3465 29.1868 42.3465 25.1611C42.3554 22.5002 41.8285 19.8636 40.7959 17.4019C39.7633 14.9402 38.2453 12.7017 36.3284 10.8141C34.4116 8.92654 32.1335 7.42694 29.6243 6.40093C27.115 5.37492 24.4239 4.84261 21.7044 4.83439Z" fill="#EA2328"/>
<path fill-rule="evenodd" clip-rule="evenodd" d="M64.2072 34.9118C57.801 34.9118 54.5801 30.3289 54.5801 25.2864C54.5801 20.2439 57.9077 15.7168 64.2677 15.7168C66.7091 15.7168 68.4388 16.2426 69.9051 17.1968L68.0829 20.1603C66.9362 19.4168 65.5821 19.0396 64.2072 19.0808C60.7763 19.0808 58.9327 21.7936 58.9327 25.175C58.9327 28.6574 60.6909 31.5164 64.2712 31.5164C65.7956 31.5473 67.2829 31.0544 68.4744 30.1235L70.1542 32.9755C69.2004 33.8287 66.9511 34.9292 64.2107 34.9292" fill="white"/>
<path fill-rule="evenodd" clip-rule="evenodd" d="M77.8668 34.9114C73.087 34.9114 70.9766 31.3419 70.9766 27.8386C70.9766 24.3354 73.0586 20.6719 77.8419 20.6719C82.6251 20.6719 84.8104 24.2135 84.8104 27.7202C84.8104 31.1713 82.675 34.9114 77.8668 34.9114ZM77.792 23.51C75.7349 23.51 75.073 25.2234 75.073 27.7202C75.073 30.2171 75.8773 32.0175 77.9202 32.0175C79.963 32.0175 80.7069 30.3425 80.7069 27.8386C80.7069 25.3348 79.8563 23.51 77.7814 23.51" fill="white"/>
<path fill-rule="evenodd" clip-rule="evenodd" d="M90.8635 20.9824V29.6884C90.8635 31.0256 91.3332 31.6908 92.643 31.6908C94.0238 31.6908 95.0844 30.3884 95.362 30.0575V20.9824H99.2271V30.5729C99.2114 31.9103 99.3306 33.2459 99.583 34.5603H95.8033C95.6521 33.97 95.5568 33.3673 95.5186 32.7599C95.0081 33.4324 94.3428 33.9776 93.5767 34.3516C92.8105 34.7255 91.9652 34.9175 91.109 34.912C88.0946 34.912 87.002 32.9932 87.002 30.5033V20.9824H90.8635Z" fill="white"/>
<path fill-rule="evenodd" clip-rule="evenodd" d="M108.694 34.9114C104.284 34.9114 101.551 32.0523 101.551 27.8073C101.551 23.2488 104.619 20.6719 108.808 20.6719C111.021 20.6719 112.345 21.3266 112.993 21.7445L111.765 24.3597C110.919 23.8214 109.927 23.5469 108.918 23.5727C106.783 23.5727 105.629 25.2234 105.629 27.6924C105.629 30.1614 106.718 31.9548 109.003 31.9548C110.034 31.9676 111.046 31.6882 111.918 31.1504L113.089 33.6995C112.459 34.093 111.196 34.9114 108.694 34.9114Z" fill="white"/>
<path fill-rule="evenodd" clip-rule="evenodd" d="M123.432 34.5635V25.8575C123.432 24.5238 122.962 23.8586 121.674 23.8586C120.268 23.8586 119.211 25.1367 118.93 25.4954V34.5635H115.068V14.5293H118.937V22.6119C119.46 22.001 120.113 21.5093 120.851 21.1712C121.589 20.8332 122.393 20.6569 123.208 20.6548C126.222 20.6548 127.318 22.5597 127.318 25.0705V34.5635H123.432Z" fill="white"/>
<path fill-rule="evenodd" clip-rule="evenodd" d="M134.305 14.5293V22.0548C135.189 21.1806 136.387 20.6805 137.644 20.6618C141.042 20.6618 143.448 22.9706 143.448 27.6788C143.448 32.387 140.291 34.9118 136.142 34.9118C133.02 34.9118 131.116 34.1387 130.447 33.8252V14.5293H134.305ZM134.305 31.6104C134.894 31.8158 135.516 31.9149 136.142 31.903C138.142 31.903 139.345 30.4578 139.345 27.6719C139.345 25.1645 138.487 23.6741 136.54 23.6741C136.115 23.6841 135.697 23.7789 135.311 23.9525C134.925 24.1262 134.579 24.3751 134.295 24.684L134.305 31.6104Z" fill="white"/>
<path fill-rule="evenodd" clip-rule="evenodd" d="M153.044 34.564C152.921 34.0916 152.843 33.6089 152.813 33.1222C152.351 33.6792 151.769 34.1287 151.107 34.4383C150.446 34.7479 149.723 34.9097 148.99 34.9122C146.656 34.9122 144.848 33.5192 144.848 31.0816C144.848 27.5574 148.499 26.255 152.14 26.255H152.61V25.4888C152.61 24.364 152.147 23.6745 150.428 23.6745C149.16 23.7092 147.939 24.1551 146.958 24.9421L145.275 22.6193C146.1 21.8811 147.923 20.6553 150.862 20.6553C154.656 20.6553 156.436 22.09 156.436 25.7117V30.4791C156.422 31.8511 156.559 33.2206 156.845 34.564H153.044ZM152.61 28.5847H152.14C150.005 28.5847 148.549 29.208 148.549 30.7473C148.549 31.7119 149.328 32.1402 150.175 32.1402C150.642 32.1335 151.101 32.0279 151.521 31.8307C151.941 31.6335 152.313 31.3494 152.61 30.998V28.5847Z" fill="white"/>
<path fill-rule="evenodd" clip-rule="evenodd" d="M163.399 34.9113C160.908 34.9113 159.346 34.187 158.506 33.6298L159.794 30.9623C160.787 31.6376 161.956 32.0229 163.165 32.0732C164.588 32.0732 165.368 31.6762 165.368 30.9031C165.368 30.0151 163.816 29.7783 161.876 28.8554C159.994 27.9535 158.876 26.9053 158.876 24.8611C158.876 22.2946 160.93 20.6823 164.04 20.6823C165.585 20.6379 167.112 21.0114 168.453 21.7618L167.115 24.3701C166.239 23.8329 165.23 23.5392 164.197 23.5204C162.894 23.5204 162.346 23.9731 162.346 24.6696C162.346 25.5611 163.606 25.777 165.172 26.4108C167.339 27.25 168.866 28.239 168.866 30.52C168.866 33.3895 166.798 34.8939 163.399 34.8939" fill="white"/>
<path fill-rule="evenodd" clip-rule="evenodd" d="M177.818 32.0558C179.068 32.0673 180.298 31.7472 181.377 31.1295L182.612 33.5672C181.69 34.093 180.295 34.9114 177.458 34.9114C172.86 34.9114 170.244 32.0663 170.244 27.7272C170.244 23.3881 173.255 20.6719 177.06 20.6719C181.373 20.6719 183.466 23.6424 183 28.7162H174.376C174.558 30.7395 175.608 32.0732 177.818 32.0732V32.0558ZM179.291 26.1358C179.263 24.6348 178.661 23.416 177.003 23.416C175.476 23.416 174.607 24.3841 174.355 26.1358H179.291Z" fill="white"/>
</g>
<defs>
<clipPath id="clip0_5019_2175">
<rect width="184" height="49.45" fill="white" transform="translate(0.0664062 0.436523)"/>
</clipPath>
</defs>
</svg>
