<svg width="271" height="70" viewBox="0 0 271 70" fill="none" xmlns="http://www.w3.org/2000/svg">
<g clip-path="url(#clip0_5094_1036)">
<path fill-rule="evenodd" clip-rule="evenodd" d="M88.9324 49.9055H76.3203V20.5938H88.9324C98.0172 20.5938 102.566 25.2135 102.566 34.4496C102.563 44.7513 98.0172 49.9055 88.9324 49.9055ZM81.7091 45.187H88.1163C94.1526 45.187 97.1674 41.609 97.1674 34.4462C97.1674 28.3489 94.1492 25.2986 88.1163 25.2986H81.7091V45.187Z" fill="white"/>
<path fill-rule="evenodd" clip-rule="evenodd" d="M108.211 49.9055H102.674L115.026 20.5938H120.823L133.439 49.9055H127.642L123.98 41.912H114.662L116.513 37.1969H122.556L117.795 26.1872L108.211 49.9055Z" fill="white"/>
<path fill-rule="evenodd" clip-rule="evenodd" d="M130.395 20.5938H152.469V25.3054H144.13V49.9055H138.741V25.3054H130.395V20.5938Z" fill="white"/>
<path fill-rule="evenodd" clip-rule="evenodd" d="M155.24 49.9055H149.703L162.056 20.5938H167.852L180.468 49.9055H174.664L171.002 41.912H161.685L163.536 37.1969H169.579L164.821 26.1872L155.24 49.9055Z" fill="white"/>
<path fill-rule="evenodd" clip-rule="evenodd" d="M196.657 49.9055H184.045V20.5938H196.657C205.749 20.5938 210.291 25.2135 210.291 34.4496C210.291 44.7513 205.749 49.9055 196.657 49.9055ZM189.437 45.187H195.844C201.877 45.187 204.902 41.609 204.902 34.4462C204.902 28.3489 201.881 25.2986 195.844 25.2986H189.437V45.187Z" fill="white"/>
<path fill-rule="evenodd" clip-rule="evenodd" d="M213.943 35.2906C213.943 25.3498 218.816 20.3828 228.555 20.3828C238.146 20.3828 242.934 25.3498 242.934 35.2906C242.934 45.1736 238.142 50.1167 228.555 50.1167C219.248 50.1167 214.378 45.1736 213.943 35.2906ZM228.555 45.3914C234.409 45.3914 237.34 41.9837 237.34 35.1613C237.34 28.4478 234.409 25.0877 228.555 25.0877C222.546 25.0877 219.541 28.4478 219.541 35.1613C219.541 41.9837 222.546 45.3914 228.555 45.3914Z" fill="white"/>
<path fill-rule="evenodd" clip-rule="evenodd" d="M265.432 38.0448V44.908C264.187 45.2348 263.075 45.3983 262.093 45.3983C255.5 45.3983 252.209 41.8781 252.209 34.8412C252.209 28.3423 255.703 25.0979 262.687 25.0979C265.604 25.0979 268.315 25.646 270.824 26.7388V21.8161C268.315 20.8628 265.465 20.3828 262.279 20.3828C251.835 20.3828 246.611 25.2 246.611 34.8412C246.611 45.0204 251.744 50.1167 262.012 50.1167C265.543 50.1167 268.477 49.5993 270.824 48.5575V33.2208H262.117L260.296 38.0414L265.432 38.0448Z" fill="white"/>
<path fill-rule="evenodd" clip-rule="evenodd" d="M54.5351 49.7386L48.8461 45.953L44.1014 53.9533L38.5845 52.326L33.7251 59.8122L33.9747 62.1681L60.3893 57.2555L58.8549 40.5945L54.5351 49.7386ZM29.901 42.5588L34.1399 41.9698C34.8245 42.2796 35.3033 42.3988 36.1261 42.6098C37.4076 42.9469 38.888 43.2703 41.0833 42.1537C41.5925 41.8983 42.6581 40.9145 43.0864 40.3561L60.45 37.1764L62.2204 58.8181L32.474 64.2311L29.901 42.5588ZM62.1529 34.7593L60.4398 35.0896L57.1486 0.746094L1.04492 7.31316L7.95797 63.9383L14.5237 62.9749C14.001 62.2191 13.1815 61.3033 11.7888 60.1322C9.85316 58.5117 10.5377 55.7542 11.6809 54.0145C13.1883 51.0766 20.968 47.3385 20.5262 42.6405C20.3677 40.9315 20.098 38.7084 18.5265 37.1833C18.4692 37.8165 18.5737 38.4259 18.5737 38.4259C18.5737 38.4259 17.9296 37.5952 17.6059 36.4615C17.2855 36.0258 17.036 35.8896 16.6954 35.3074C16.4526 35.9781 16.4863 36.7577 16.4863 36.7577C16.4863 36.7577 15.9603 35.4981 15.8726 34.4359C15.559 34.9125 15.4814 35.8147 15.4814 35.8147C15.4814 35.8147 14.7968 33.8299 14.952 32.761C14.6383 31.8316 13.711 29.9864 13.974 25.7922C15.6871 27.0041 19.4572 26.7148 20.9242 24.5291C21.4131 23.804 21.747 21.8295 20.6814 17.9383C19.9968 15.4428 18.3039 11.7252 17.643 10.3124L17.5654 10.3703C17.9128 11.5074 18.6311 13.887 18.9076 15.0445C19.7405 18.5476 19.9631 19.7664 19.5719 21.3801C19.2381 22.7827 18.4422 23.7019 16.4189 24.73C14.3955 25.7615 11.7113 23.2525 11.5393 23.1163C9.57327 21.5367 8.0524 18.9562 7.88379 17.7033C7.70843 16.3314 8.66614 15.5075 9.15174 14.3875C8.46044 14.5883 7.6882 14.9424 7.6882 14.9424C7.6882 14.9424 8.60881 13.9789 9.74525 13.1483C10.2174 12.8351 10.4905 12.6342 10.9862 12.2189C10.2679 12.2087 9.68455 12.2257 9.68455 12.2257C9.68455 12.2257 10.8817 11.572 12.1227 11.0988C11.2155 11.058 10.3455 11.092 10.3455 11.092C10.3455 11.092 13.0163 9.88687 15.1239 9.00173C16.574 8.40256 17.9903 8.57959 18.7862 9.74049C19.8316 11.2622 20.9275 12.0895 23.2544 12.6036C24.6842 11.9636 25.1158 11.6367 26.9099 11.1431C28.4881 9.38983 29.729 9.16174 29.729 9.16174C29.729 9.16174 29.1153 9.73027 28.95 10.6256C29.8471 9.91411 30.8284 9.31834 30.8284 9.31834C30.8284 9.31834 30.4473 9.79155 30.0932 10.5439L30.1742 10.6665C31.2196 10.0333 32.447 9.53622 32.447 9.53622C32.447 9.53622 32.0963 9.9856 31.6849 10.5643C32.474 10.5575 34.0724 10.5984 34.6896 10.6699C38.3518 10.7516 39.1105 6.72079 40.5168 6.21694C42.2771 5.58373 43.0628 5.19903 46.0607 8.17106C48.6337 10.7244 50.6435 15.2896 49.6454 16.3144C48.8091 17.1621 47.1567 15.9841 45.3289 13.6794C44.3611 12.4606 43.6327 11.0205 43.2887 9.18897C42.9987 7.64338 41.8758 6.74803 41.8758 6.74803C41.8758 6.74803 42.5266 8.21532 42.5266 9.50899C42.5266 10.2171 42.6143 12.8589 43.7372 14.3398C43.626 14.5577 43.5754 15.4122 43.4506 15.5756C42.1455 13.9824 39.3399 12.8419 38.8846 12.5048C40.4325 13.7849 43.9902 16.7263 45.3559 19.5451C46.6475 22.2108 45.8853 24.6551 46.5396 25.2883C46.725 25.4688 49.3183 28.7302 49.8174 30.3711C50.6874 33.2274 49.8679 36.23 48.7315 38.0922L45.5515 38.5927C45.0861 38.4633 44.7725 38.3952 44.3544 38.1535C44.5837 37.7416 45.0423 36.7169 45.0457 36.5058L44.8669 36.1892C43.8755 37.6054 42.2197 38.9808 40.8405 39.7706C39.0364 40.8021 36.9591 40.6421 35.6068 40.22C31.7659 39.025 28.134 36.4036 27.2606 35.716C27.2606 35.716 27.2336 36.2641 27.3988 36.39C28.3667 37.4931 30.5856 39.488 32.7303 40.877L28.1609 41.3843L30.3225 58.3688C29.3648 58.5083 29.2165 58.5764 28.1677 58.7262C27.2437 55.4308 25.4767 53.2758 23.5444 52.023C21.8414 50.9165 19.491 50.668 17.2383 51.1174L17.0933 51.2876C18.658 51.1242 20.506 51.3523 22.4012 52.5643C24.2627 53.7524 25.7633 56.8232 26.3163 58.6717C27.0245 61.0344 27.5135 63.5605 25.6082 66.2397C24.2525 68.1428 20.3003 69.1947 17.1034 66.9206C17.9566 68.3062 19.1099 69.4398 20.6611 69.6509C22.9677 69.9675 25.1563 69.5624 26.6603 68.0032C27.9451 66.6687 28.6297 63.8771 28.4476 60.9391L30.481 60.6429L31.2162 65.9163L64.8979 61.8208L62.1529 34.7593ZM41.66 20.4337C41.5655 20.6515 41.4171 20.7911 41.6397 21.4958L41.6532 21.5367L41.6869 21.6286L41.778 21.8397C42.1793 22.6635 42.6177 23.4431 43.3494 23.8415C43.5383 23.8108 43.7372 23.787 43.9396 23.7768C44.6275 23.7461 45.0625 23.8551 45.339 24.0083C45.3626 23.8687 45.3694 23.6678 45.3525 23.3682C45.2986 22.3231 45.5582 20.546 43.5686 19.6098C42.8166 19.2592 41.7645 19.3647 41.4138 19.8073C41.4778 19.8141 41.5352 19.8277 41.579 19.8447C42.1152 20.0285 41.7577 20.2124 41.66 20.4337ZM47.2376 30.1872C46.9779 30.0408 45.7572 30.0987 44.9007 30.2009C43.2685 30.3949 41.5048 30.9668 41.117 31.2698C40.4156 31.8179 40.7326 32.7746 41.2519 33.1661C42.7087 34.2623 43.9834 35.001 45.3289 34.8206C46.1551 34.7117 46.8835 33.3908 47.3995 32.189C47.7569 31.3652 47.7569 30.4766 47.2376 30.1872ZM32.7809 21.7273C33.2429 21.2848 30.4878 20.706 28.3498 22.1767C26.775 23.2627 26.7244 25.5913 28.2318 26.9088C28.3835 27.0382 28.5083 27.1335 28.6229 27.2084C29.0647 26.9973 29.5672 26.7863 30.1438 26.599C31.1218 26.279 31.9311 26.1122 32.5988 26.0271C32.9192 25.6662 33.2901 25.033 33.1957 23.8857C33.0709 22.3231 31.9007 22.5716 32.7809 21.7273Z" fill="white"/>
</g>
<defs>
<clipPath id="clip0_5094_1036">
<rect width="269.946" height="69.1738" fill="white" transform="translate(0.960938 0.660156)"/>
</clipPath>
</defs>
</svg>
