<svg width="161" height="75" viewBox="0 0 161 75" fill="none" xmlns="http://www.w3.org/2000/svg">
<path d="M0.113281 60.1025H8.04105V61.1533H4.65624V70.9197H3.51004V61.1533H0.113281V60.1025Z" fill="white"/>
<path d="M9.66992 70.9197V60.1025H10.7504V64.8485C10.9653 64.4366 11.2817 64.1083 11.6996 63.8576C12.1175 63.6128 12.5891 63.4873 13.1145 63.4873C13.8965 63.4873 14.5174 63.7441 14.977 64.2515C15.4367 64.7589 15.6635 65.4514 15.6635 66.329V70.9197H14.583V66.5797C14.583 65.8992 14.4337 65.3798 14.1352 65.0097C13.8368 64.6395 13.4189 64.4604 12.8816 64.4604C12.2727 64.4604 11.7653 64.6814 11.3594 65.1171C10.9534 65.5529 10.7504 66.1021 10.7504 66.7648V70.9197H9.66992Z" fill="white"/>
<path d="M23.0326 68.9615L23.9459 69.242C23.3609 70.5195 22.364 71.1583 20.9611 71.1583C19.8865 71.1583 19.0209 70.8002 18.3582 70.0778C17.6957 69.3554 17.3613 68.448 17.3613 67.3436C17.3613 66.2392 17.6777 65.3258 18.3046 64.5917C18.9314 63.8574 19.7611 63.4932 20.7939 63.4932C21.7432 63.4932 22.5431 63.8156 23.1997 64.4663C23.8564 65.1169 24.1966 66.0244 24.2265 67.2004V67.5705H18.4657C18.5195 68.3645 18.7642 69.0093 19.218 69.5046C19.6657 70.0001 20.2566 70.245 20.9849 70.245C21.9342 70.245 22.6147 69.8152 23.0386 68.9615H23.0326ZM20.8058 64.3588C20.1372 64.3588 19.5941 64.5796 19.1881 65.0154C18.7821 65.4513 18.5434 66.0482 18.4717 66.8005H23.0922C23.0505 65.9885 22.8117 65.3736 22.3759 64.9677C21.9401 64.5618 21.4148 64.3588 20.8058 64.3588Z" fill="white"/>
<path d="M33.0013 71.1515C32.0522 71.1515 31.2165 70.9067 30.4882 70.4113C29.7598 69.9158 29.3419 69.2174 29.2285 68.3099L30.3269 68.095C30.4285 68.7755 30.7389 69.289 31.2522 69.6352C31.7656 69.9814 32.3566 70.1546 33.0312 70.1546C33.7595 70.1546 34.3564 69.9636 34.8102 69.5755C35.2639 69.1875 35.4907 68.686 35.4907 68.0711C35.4907 67.6473 35.3832 67.295 35.1684 67.0145C34.9534 66.7339 34.6729 66.519 34.3266 66.3757C33.9805 66.2325 33.6043 66.1071 33.1924 65.9996C32.7805 65.8921 32.3686 65.7727 31.9508 65.6474C31.5329 65.522 31.1507 65.3549 30.8045 65.1639C30.4583 64.9668 30.1777 64.6744 29.9628 64.2803C29.7479 63.8864 29.6404 63.4147 29.6404 62.8596C29.6404 61.9642 29.9568 61.2478 30.5955 60.7045C31.2344 60.1612 32.0462 59.8926 33.0253 59.8926C34.0043 59.8926 34.8281 60.1612 35.4669 60.7045C36.1056 61.2478 36.4817 61.9402 36.5951 62.782L35.4967 62.967C35.4072 62.3581 35.1385 61.8626 34.7027 61.4746C34.2669 61.0865 33.6879 60.8955 32.9775 60.8955C32.3626 60.8955 31.8433 61.0627 31.4254 61.397C31.0075 61.7313 30.7986 62.1909 30.7986 62.782C30.7986 63.3729 31.0015 63.7908 31.4014 64.1012C31.8015 64.4176 32.291 64.6385 32.8581 64.7758C33.4311 64.9071 34.0043 65.0624 34.5833 65.2296C35.1624 65.3967 35.652 65.7071 36.0519 66.1489C36.4519 66.5907 36.6548 67.1936 36.6548 67.9577C36.6548 68.9248 36.3145 69.7008 35.628 70.2919C34.9415 70.8768 34.07 71.1753 33.0074 71.1753L33.0013 71.1515Z" fill="white"/>
<path d="M43.9212 68.9615L44.8345 69.242C44.2496 70.5195 43.2525 71.1583 41.8496 71.1583C40.7811 71.1583 39.9095 70.8002 39.2469 70.0778C38.5783 69.3554 38.25 68.448 38.25 67.3436C38.25 66.2392 38.5663 65.3258 39.1931 64.5917C39.8199 63.8574 40.6498 63.4932 41.6826 63.4932C42.6317 63.4932 43.4316 63.8156 44.0883 64.4663C44.745 65.1169 45.0853 66.0244 45.1152 67.2004V67.5705H39.3484C39.4021 68.3645 39.6529 69.0093 40.1006 69.5046C40.5483 70.0001 41.1393 70.245 41.8736 70.245C42.8227 70.245 43.5033 69.8152 43.9271 68.9615H43.9212ZM41.6945 64.3588C41.0259 64.3588 40.4886 64.5796 40.0827 65.0154C39.6767 65.4513 39.4379 66.0482 39.3663 66.8005H43.9868C43.9451 65.9885 43.7063 65.3736 43.2705 64.9677C42.8346 64.5618 42.3094 64.3588 41.7004 64.3588H41.6945Z" fill="white"/>
<path d="M52.3375 66.1438V70.9196H51.2987V70.0062H51.2689C51.0719 70.3584 50.7675 70.633 50.3496 70.8359C49.9317 71.039 49.4661 71.1344 48.9526 71.1344C48.2005 71.1344 47.5916 70.9315 47.1319 70.5255C46.6663 70.1196 46.4395 69.5883 46.4395 68.9436C46.4395 68.2451 46.7081 67.678 47.2454 67.2541C47.7826 66.8243 48.5049 66.6094 49.4124 66.6094C50.2183 66.6094 50.8331 66.7408 51.263 66.9974V66.1616C51.263 65.6066 51.1138 65.1707 50.8153 64.8543C50.5168 64.5379 50.0929 64.3828 49.5496 64.3828C48.6541 64.3828 48.0751 64.7767 47.8184 65.5588L46.7379 65.4513C46.911 64.8305 47.2573 64.3529 47.7707 64.0066C48.284 63.6604 48.905 63.4873 49.6272 63.4873C50.4809 63.4873 51.1495 63.7201 51.6271 64.1916C52.1047 64.6633 52.3434 65.314 52.3434 66.1438H52.3375ZM47.5319 68.848C47.5319 69.26 47.6871 69.6002 47.9975 69.8629C48.308 70.1256 48.696 70.2569 49.1736 70.2569C49.7287 70.2569 50.2183 70.0897 50.6421 69.7555C51.066 69.4211 51.2749 69.0391 51.2749 68.6213V67.863C50.851 67.5766 50.266 67.4332 49.5139 67.4332C48.8929 67.4332 48.4095 67.5645 48.0632 67.8212C47.7169 68.078 47.5378 68.4242 47.5378 68.86L47.5319 68.848Z" fill="white"/>
<path d="M54.5098 70.9188V63.7193H55.5306V64.9072H55.5903C55.7753 64.4834 56.0559 64.1491 56.4261 63.9044C56.7962 63.6596 57.2022 63.5342 57.6499 63.5342C57.8946 63.5342 58.0976 63.57 58.2528 63.6417V64.6924C58.0976 64.6327 57.9006 64.5968 57.6499 64.5968C57.0409 64.5968 56.5455 64.8356 56.1634 65.3073C55.7813 65.7788 55.5903 66.4236 55.5903 67.2414V70.9188H54.5098Z" fill="white"/>
<path d="M62.3972 63.4873C64.0687 63.4873 65.1372 64.2634 65.6088 65.8214L64.5582 65.9886C64.218 64.9677 63.5075 64.4603 62.427 64.4603C61.6867 64.4603 61.1077 64.7289 60.6898 65.2662C60.2719 65.8035 60.063 66.4841 60.063 67.3198C60.063 68.1556 60.2659 68.8421 60.6838 69.3734C61.0958 69.9106 61.6748 70.1793 62.427 70.1793C63.4896 70.1793 64.194 69.666 64.5463 68.6332L65.567 68.8958C65.3402 69.6182 64.9582 70.1734 64.4209 70.5673C63.8836 70.9614 63.2269 71.1524 62.4449 71.1524C61.3943 71.1524 60.5525 70.7882 59.9257 70.0659C59.2988 69.3435 58.9824 68.4242 58.9824 67.3257C58.9824 66.2274 59.2988 65.2841 59.9317 64.5677C60.5644 63.8514 61.3882 63.4932 62.3972 63.4932V63.4873Z" fill="white"/>
<path d="M67.2617 70.9197V60.1025H68.3422V64.8485C68.5571 64.4366 68.8735 64.1083 69.2914 63.8576C69.7093 63.6128 70.1809 63.4873 70.7062 63.4873C71.4882 63.4873 72.1091 63.7441 72.5687 64.2515C73.0284 64.7589 73.2553 65.4514 73.2553 66.329V70.9197H72.1747V66.5797C72.1747 65.8992 72.0255 65.3798 71.727 65.0097C71.4285 64.6455 71.0106 64.4604 70.4733 64.4604C69.8644 64.4604 69.357 64.6814 68.951 65.1171C68.5452 65.5529 68.3422 66.1021 68.3422 66.7648V70.9197H67.2617Z" fill="white"/>
<path d="M83.6551 59.9648L87.816 70.9193H86.5922L85.3386 67.5642H80.6584L79.4227 70.9193H78.2168L82.3896 59.9648H83.6551ZM83.0402 61.2782H82.9805L81.0464 66.5315H84.9864L83.0402 61.2782Z" fill="white"/>
<path d="M89.668 60.1025H90.8142V70.9197H89.668V60.1025Z" fill="white"/>
<path d="M96.7266 65.5115C96.7266 63.8101 97.2161 62.449 98.1952 61.4162C99.1741 60.3895 100.416 59.8701 101.92 59.8701C102.995 59.8701 103.926 60.1567 104.726 60.7357C105.526 61.3148 106.081 62.1088 106.404 63.1176L105.227 63.3027C105.001 62.6102 104.589 62.043 103.998 61.6013C103.407 61.1596 102.714 60.9386 101.92 60.9386C100.756 60.9386 99.789 61.3686 99.0249 62.2221C98.2608 63.0758 97.8727 64.1743 97.8727 65.5115C97.8727 66.8487 98.2549 67.9352 99.019 68.7948C99.783 69.6544 100.744 70.0843 101.908 70.0843C102.69 70.0843 103.377 69.8694 103.974 69.4336C104.565 69.0038 104.989 68.4068 105.251 67.6546L106.35 67.9352C106.069 68.9142 105.532 69.6963 104.744 70.2753C103.95 70.8604 103.025 71.1469 101.962 71.1469C100.458 71.1469 99.21 70.6275 98.219 69.5947C97.2281 68.5621 96.7385 67.1949 96.7385 65.5055L96.7266 65.5115Z" fill="white"/>
<path d="M107.881 67.3198C107.881 66.1856 108.221 65.2662 108.896 64.5558C109.57 63.8455 110.43 63.4873 111.469 63.4873C112.507 63.4873 113.373 63.8395 114.048 64.5558C114.728 65.2662 115.068 66.1915 115.068 67.3198C115.068 68.4481 114.728 69.3615 114.042 70.0778C113.355 70.7942 112.501 71.1524 111.469 71.1524C110.436 71.1524 109.57 70.7942 108.896 70.0778C108.221 69.3615 107.881 68.4422 107.881 67.3198ZM108.961 67.3198C108.961 68.1316 109.194 68.8123 109.66 69.3615C110.125 69.9047 110.722 70.1793 111.469 70.1793C112.215 70.1793 112.842 69.9106 113.301 69.3675C113.761 68.8242 113.988 68.1437 113.988 67.3198C113.988 66.496 113.755 65.7976 113.301 65.2662C112.842 64.7289 112.233 64.4603 111.469 64.4603C110.705 64.4603 110.113 64.7289 109.654 65.2662C109.194 65.8035 108.967 66.4841 108.967 67.3198H108.961Z" fill="white"/>
<path d="M127.293 66.2691V70.9196H126.212V66.5795C126.212 65.9228 126.069 65.4035 125.777 65.0274C125.49 64.6514 125.084 64.4663 124.571 64.4663C124.027 64.4663 123.562 64.6812 123.179 65.105C122.798 65.5348 122.607 66.0483 122.607 66.6571V70.9196H121.526V66.5795C121.526 65.9228 121.383 65.4035 121.096 65.0274C120.81 64.6514 120.404 64.4663 119.89 64.4663C119.341 64.4663 118.881 64.6812 118.499 65.105C118.117 65.5348 117.926 66.0483 117.926 66.6571V70.9196H116.846V63.7201H117.867V64.7529H117.926C118.111 64.3828 118.41 64.0783 118.816 63.8395C119.222 63.6007 119.675 63.4873 120.171 63.4873C120.709 63.4873 121.179 63.6245 121.586 63.9052C121.992 64.1857 122.26 64.5498 122.397 65.0036C122.643 64.532 122.982 64.1618 123.401 63.8931C123.819 63.6245 124.296 63.4932 124.821 63.4932C125.573 63.4932 126.17 63.7439 126.624 64.2454C127.072 64.7468 127.298 65.4214 127.298 66.2751L127.293 66.2691Z" fill="white"/>
<path d="M135.579 64.5619C136.219 65.2782 136.535 66.1975 136.535 67.3198C136.535 68.4422 136.212 69.3615 135.561 70.0778C134.91 70.7942 134.087 71.1524 133.09 71.1524C132.534 71.1524 132.034 71.039 131.586 70.8121C131.138 70.5852 130.798 70.2688 130.559 69.8689V74.0118H129.479V63.7201H130.469V64.9856H130.499C130.743 64.5022 131.102 64.1319 131.568 63.8753C132.034 63.6186 132.546 63.4873 133.114 63.4873C134.123 63.4873 134.946 63.8455 135.585 64.5619H135.579ZM135.442 67.3198C135.442 66.496 135.209 65.8155 134.738 65.2722C134.266 64.7289 133.675 64.4603 132.953 64.4603C132.23 64.4603 131.622 64.723 131.179 65.2484C130.743 65.7736 130.523 66.4661 130.523 67.3198C130.523 68.1735 130.743 68.8659 131.179 69.3973C131.616 69.9286 132.207 70.1912 132.953 70.1912C133.699 70.1912 134.308 69.9167 134.761 69.3675C135.215 68.8182 135.442 68.1316 135.442 67.3198Z" fill="white"/>
<path d="M143.864 66.1438V70.9196H142.832V70.0062H142.803C142.605 70.3584 142.301 70.633 141.883 70.8359C141.466 71.039 141 71.1344 140.486 71.1344C139.734 71.1344 139.125 70.9315 138.665 70.5255C138.199 70.1196 137.967 69.5883 137.967 68.9436C137.967 68.2451 138.235 67.678 138.773 67.2541C139.31 66.8243 140.032 66.6094 140.934 66.6094C141.74 66.6094 142.355 66.7408 142.791 66.9974V66.1616C142.791 65.6066 142.641 65.1707 142.343 64.8543C142.044 64.5379 141.621 64.3828 141.077 64.3828C140.181 64.3828 139.602 64.7767 139.346 65.5588L138.265 65.4513C138.439 64.8305 138.785 64.3529 139.298 64.0066C139.812 63.6604 140.432 63.4873 141.155 63.4873C142.008 63.4873 142.676 63.7201 143.154 64.1916C143.632 64.6633 143.87 65.314 143.87 66.1438H143.864ZM139.06 68.848C139.06 69.26 139.215 69.6002 139.525 69.8629C139.835 70.1256 140.223 70.2569 140.701 70.2569C141.256 70.2569 141.746 70.0897 142.17 69.7555C142.593 69.4211 142.803 69.0391 142.803 68.6213V67.863C142.378 67.5766 141.793 67.4332 141.041 67.4332C140.421 67.4332 139.937 67.5645 139.59 67.8212C139.238 68.078 139.066 68.4242 139.066 68.86L139.06 68.848Z" fill="white"/>
<path d="M152.039 66.3348V70.9255H150.958V66.5855C150.958 65.905 150.809 65.3855 150.51 65.0154C150.212 64.6514 149.794 64.4663 149.256 64.4663C148.647 64.4663 148.14 64.6871 147.735 65.1229C147.328 65.5587 147.126 66.1079 147.126 66.7705V70.9255H146.045V63.7261H147.066V64.8543H147.126C147.328 64.4304 147.644 64.1021 148.062 63.8574C148.481 63.6186 148.958 63.4932 149.49 63.4932C150.272 63.4932 150.892 63.7499 151.351 64.2573C151.811 64.7647 152.039 65.4573 152.039 66.3348Z" fill="white"/>
<path d="M160.066 63.7207L155.912 73.9051H154.831L156.144 70.7053L153.082 63.7207H154.288L156.729 69.4218L158.967 63.7207H160.066Z" fill="white"/>
<path fill-rule="evenodd" clip-rule="evenodd" d="M47.054 20.344C48.1853 21.9576 48.7882 23.8859 48.7912 25.8565C48.7786 27.8432 48.1578 29.7767 47.0182 31.4C45.8779 33.0237 44.2661 34.2534 42.3977 34.934C42.9528 36.4265 43.0066 38.0502 42.5469 39.5725C42.0871 41.0948 41.1499 42.426 39.8664 43.3632C38.583 44.3005 37.0308 44.796 35.443 44.7721C33.855 44.7482 32.3208 44.205 31.0671 43.2319C29.3717 45.5959 26.9719 47.3569 24.2139 48.2703C21.4559 49.1837 18.4769 49.1956 15.707 48.3062C12.9372 47.4166 10.5253 45.6735 8.81203 43.3215C7.10469 40.9754 6.18536 38.1397 6.18536 35.2325C6.18536 34.355 6.26895 33.4834 6.4361 32.6178C4.56758 31.9551 2.94979 30.7254 1.80957 29.1017C0.669355 27.4778 0.0664062 25.5376 0.0664062 23.5557C0.0783457 21.5738 0.693227 19.6397 1.83941 18.0218C2.98559 16.3981 4.59742 15.1624 6.45997 14.4818C5.90478 12.9893 5.85107 11.3596 6.30477 9.83735C6.75846 8.31507 7.6957 6.98384 8.97918 6.04063C10.2627 5.09741 11.8148 4.60191 13.4027 4.61982C14.9907 4.63773 16.5309 5.175 17.7845 6.14807C19.4859 3.79003 21.8976 2.02898 24.6616 1.12158C27.4256 0.21419 30.4105 0.208203 33.1804 1.10366C35.9504 1.99912 38.3621 3.75421 40.0754 6.10628C41.7887 8.45835 42.7081 11.294 42.7081 14.2072C42.7081 15.0847 42.6185 15.9623 42.4513 16.8279C44.308 17.4965 45.9198 18.7263 47.054 20.344ZM19.2232 21.3469L29.8851 26.2183L40.6485 16.7921C40.8037 16.0161 40.8813 15.2221 40.8754 14.4281C40.8754 11.8611 40.0515 9.35978 38.5293 7.29426C37.007 5.22874 34.8638 3.7005 32.4103 2.94235C29.9567 2.18419 27.3242 2.22598 24.9004 3.07368C22.4767 3.91541 20.3814 5.51528 18.9307 7.63453L17.1398 16.9055L19.2232 21.3469ZM8.18521 32.6357C8.03 33.4237 7.94642 34.2296 7.95239 35.0355C7.95239 37.6144 8.77621 40.1217 10.3104 42.1991C11.8446 44.2706 13.9997 45.7989 16.4593 46.557C18.9247 47.3152 21.5634 47.2615 23.9989 46.4078C26.4287 45.5541 28.524 43.9423 29.9747 41.8111L31.7476 32.5581L29.3777 28.0271L18.674 23.1498L8.17924 32.6297L8.18521 32.6357ZM15.4265 15.9145L8.11954 14.1893C7.68973 13.0192 7.65391 11.7417 8.01209 10.5477C8.37027 9.34783 9.10455 8.30313 10.1075 7.56289C11.1104 6.82265 12.3281 6.42866 13.5759 6.43463C14.8235 6.4406 16.0354 6.85249 17.0264 7.60468L15.4265 15.9145ZM7.48676 15.9264C5.8809 16.4697 4.48996 17.4965 3.49899 18.8636C2.50802 20.2366 1.96477 21.8783 1.95283 23.5737C1.95283 25.2093 2.44832 26.8033 3.37363 28.1524C4.29893 29.5016 5.61822 30.5284 7.14647 31.1134L17.3965 21.8485L15.516 17.8248L7.48676 15.9324V15.9264ZM35.2937 42.9812C34.052 42.9752 32.8401 42.5692 31.8491 41.8171L31.8551 41.8111L33.4431 33.5431L40.744 35.2444C41.1679 36.4145 41.2037 37.692 40.8455 38.8801C40.4874 40.068 39.7531 41.1127 38.7501 41.8529C37.7472 42.5932 36.5353 42.9871 35.2937 42.9812ZM33.3356 31.6267L41.3708 33.5073C42.9767 32.97 44.3677 31.9432 45.3646 30.5701C46.3555 29.1971 46.8988 27.5554 46.9107 25.8601C46.9107 24.2303 46.4093 22.6364 45.484 21.2932C44.5587 19.9501 43.2453 18.9233 41.717 18.3441L31.2045 27.5495L33.3356 31.6328V31.6267Z" fill="white"/>
<path d="M68.1935 34.5398L69.1666 34.4383L69.2323 36.4202C67.0652 36.7486 64.8744 36.9276 62.6834 36.9575C60.2657 36.9575 58.5524 36.2591 57.5436 34.8562C56.5346 33.4593 56.0332 31.2804 56.0332 28.3254C56.0332 22.4392 58.3733 19.4961 63.0536 19.4961C65.3221 19.4961 67.0115 20.1289 68.1219 21.3945C69.2382 22.66 69.7934 24.642 69.7994 27.3404L69.668 29.2566H58.5883C58.5883 31.1132 58.9225 32.4921 59.5971 33.3876C60.2717 34.283 61.4358 34.7308 63.1013 34.7308C64.7728 34.7308 66.4683 34.6711 68.1876 34.5398H68.1935ZM67.2861 27.2567C67.2861 25.1972 66.9578 23.7406 66.2951 22.8928C65.6384 22.0451 64.5639 21.6153 63.0714 21.6153C61.579 21.6153 60.4627 22.0631 59.7106 22.9585C58.9584 23.854 58.5763 25.2867 58.5524 27.2567H67.2801H67.2861Z" fill="white"/>
<path d="M73.3203 36.8322V14.7383H75.8395V36.8262H73.3203V36.8322Z" fill="white"/>
<path d="M91.6959 24.9045V33.3696C91.6959 34.2173 93.7853 34.1755 93.7853 34.1755L93.6601 36.4021C91.8871 36.4021 90.4245 36.5514 89.5468 35.6978C87.6486 36.5395 85.589 36.9693 83.5055 36.9573C81.9653 36.9573 80.7893 36.5215 79.9775 35.644C79.1716 34.7725 78.7656 33.5128 78.7656 31.8772C78.7656 30.2414 79.1775 29.0356 80.0073 28.2655C80.8371 27.4953 82.1325 27.0238 83.8996 26.8506L89.1708 26.3492V24.9045C89.1708 23.7703 88.926 22.9525 88.4366 22.4509C88.1679 22.2002 87.8515 22.0032 87.5052 21.8779C87.159 21.7525 86.7889 21.6988 86.4188 21.7166H79.8043V19.502H86.2516C88.156 19.502 89.5349 19.9378 90.4005 20.8153C91.2603 21.6868 91.69 23.0539 91.69 24.9104L91.6959 24.9045ZM81.3505 31.7518C81.3505 33.8113 82.1982 34.8441 83.8996 34.8441C85.4338 34.8441 86.956 34.5814 88.4007 34.068L89.1708 33.7994V28.2595L84.21 28.7311C83.2011 28.8206 82.4727 29.1132 82.025 29.6027C81.5773 30.0922 81.3505 30.8085 81.3505 31.7518Z" fill="white"/>
<path d="M101.522 21.7527C99.0806 21.7527 97.8627 22.6003 97.8627 24.3017C97.8627 25.0897 98.1433 25.639 98.7104 25.9613C99.2775 26.2836 100.555 26.618 102.537 26.9701C104.531 27.3224 105.94 27.8059 106.77 28.4327C107.599 29.0595 108.011 30.2297 108.011 31.9549C108.011 33.6802 107.456 34.9457 106.352 35.7516C105.241 36.5575 103.624 36.9575 101.498 36.9635C100.113 36.9635 95.4749 36.4501 95.4749 36.4501L95.6122 34.2711C98.2747 34.5278 100.197 34.713 101.498 34.713C102.8 34.713 103.785 34.504 104.471 34.092C105.152 33.6802 105.492 32.9876 105.492 32.0087C105.492 31.0295 105.212 30.3729 104.62 30.0267C104.029 29.6805 102.764 29.3521 100.794 29.0357C98.8239 28.7193 97.421 28.2597 96.5972 27.6567C95.7675 27.0538 95.3555 25.9315 95.3555 24.2958C95.3555 22.66 95.9226 21.4661 97.0867 20.6721C98.2508 19.8782 99.6776 19.4961 101.403 19.4961C102.77 19.4961 107.504 19.8424 107.504 19.8424V22.0392C105.003 21.9257 102.961 21.7527 101.528 21.7527H101.522Z" fill="white"/>
<path d="M120.147 22.0162H114.811V30.0396C114.811 31.9618 114.948 33.2274 115.228 33.8303C115.509 34.4392 116.172 34.7377 117.222 34.7377L120.213 34.5348L120.38 36.6182C119.246 36.8271 118.106 36.9525 116.954 36.9883C115.211 36.9883 113.999 36.5645 113.33 35.7108C112.655 34.8571 112.321 33.2393 112.327 30.8395V22.0103H109.951V19.8314H112.333V14.6914H114.816V19.8314H120.141V22.0103L120.147 22.0162Z" fill="white"/>
<path d="M123.646 17.6947V14.7695H126.166V17.6947H123.646ZM123.646 36.8336V19.8438H126.166V36.8336H123.646Z" fill="white"/>
<path d="M137.07 19.502C138.33 19.5556 139.577 19.693 140.819 19.9079L141.624 20.0094L141.523 22.057C140.21 21.8898 138.885 21.7884 137.56 21.7585C135.655 21.7585 134.366 22.2122 133.686 23.1195C133.004 24.027 132.665 25.7044 132.659 28.158C132.659 30.6115 132.974 32.3189 133.613 33.2801C134.253 34.2411 135.584 34.7187 137.607 34.7247L141.571 34.4262L141.673 36.5096C140.127 36.7724 138.569 36.9275 137.004 36.9813C134.39 36.9813 132.581 36.3067 131.584 34.9635C130.586 33.6203 130.092 31.3518 130.092 28.1639C130.092 24.9762 130.629 22.7375 131.703 21.448C132.778 20.1586 134.569 19.5139 137.07 19.5139V19.502Z" fill="white"/>
</svg>
