<svg width="185" height="22" viewBox="0 0 185 22" fill="none" xmlns="http://www.w3.org/2000/svg">
<g clip-path="url(#clip0_5019_2208)">
<path d="M105.689 4.83998V0.436523H110.746V21.0613H105.689V4.83998ZM83.4249 0.436523H102.934V4.87761H93.7645V21.0989H88.7457V4.87761H83.4249V0.436523ZM184.066 0.436523V4.87761H174.897V21.0989H169.878V4.87761H164.557V0.436523H184.066ZM0.0664062 0.436523H21.9532V4.87761H5.12301V9.28107H19.4626V13.7222H5.12301V21.0613H0.0664062V0.436523ZM141.387 0.436523H161.765V4.87761H146.444V8.56598H159.01V13.0071H146.444V16.6954H162.029V21.1365H141.387V0.436523ZM137.5 6.27016V21.0613H132.444V6.27016C132.444 5.4798 131.84 4.87761 131.048 4.87761H119.727V21.0989H114.67V0.436523H131.651C134.859 0.436523 137.5 3.07107 137.5 6.27016ZM75.6513 0.436523H58.406V21.0613H63.4626V13.7222H74.7834C75.3872 13.7598 75.8777 14.2491 75.8777 14.8513V21.0989H80.9343V14.776C80.9343 13.6845 80.3306 12.7436 79.4249 12.2167C80.5192 11.2005 81.1985 9.73271 81.1985 8.15198V5.96907C81.2362 2.92052 78.7457 0.436523 75.6513 0.436523ZM76.1796 8.15198C76.1796 8.75416 75.689 9.28107 75.0475 9.28107H63.4626V4.87761H75.0475C75.6513 4.87761 76.1796 5.36689 76.1796 6.00671V8.15198Z" fill="white"/>
<path d="M54.482 8.11434V13.4587H46.1047V8.11434H54.482ZM35.5009 21.0613H43.8405V15.7169H35.5009V21.0613ZM54.482 4.91525C54.482 2.43125 52.482 0.436523 49.9915 0.436523H46.1424V5.78089H54.482V4.91525ZM35.5009 0.436523V5.78089H43.8405V0.436523H35.5009ZM24.8594 8.11434V13.4587H33.199V8.11434H24.8594ZM46.1047 21.0613H49.9537C52.4443 21.0613 54.4443 19.0665 54.4443 16.5825V15.7169H46.1047V21.0613ZM24.8594 16.5825C24.8594 19.0665 26.8594 21.0613 29.3499 21.0613H33.199V15.7169H24.8594V16.5825ZM24.8594 4.91525V5.78089H33.199V0.436523H29.3499C26.8594 0.436523 24.8594 2.43125 24.8594 4.91525Z" fill="#DA291C"/>
</g>
<defs>
<clipPath id="clip0_5019_2208">
<rect width="184" height="20.7" fill="white" transform="translate(0.0664062 0.436523)"/>
</clipPath>
</defs>
</svg>
