<?xml version="1.0" encoding="UTF-8"?>
<svg id="Layer_2" data-name="Layer 2" xmlns="http://www.w3.org/2000/svg" viewBox="0 0 500.5 105.2">
  <defs>
    <style>
      .cls-1 {
        fill: #fff;
      }
    </style>
  </defs>
  <g id="Layer_1-2" data-name="Layer 1">
    <g>
      <path class="cls-1" d="M22.4,25.6c0-4,3.3-7.3,7.3-7.3s7.3,3.3,7.3,7.3,0,.6,0,1l16.4,9.4,6-10.4L44.6,0H15L.2,25.6l14.8,25.6h12v-18.9c-2.7-1.1-4.5-3.7-4.5-6.7h-.1Z"/>
      <path class="cls-1" d="M50.5,40.7l-16.4-9.4c-.5.4-1.1.8-1.7,1v18.9h12l6.1-10.5Z"/>
      <path class="cls-1" d="M36.9,79.6c0,4-3.3,7.3-7.3,7.3s-7.3-3.3-7.3-7.3,1.9-5.6,4.5-6.7v-18.9h-12L0,79.6l14.8,25.6h29.6l14.8-25.6-6.1-10.5-16.3,9.5v1h.1Z"/>
      <path class="cls-1" d="M32.4,54v18.9c.6.2,1.2.6,1.7,1l16.3-9.5-6-10.4s-12,0-12,0Z"/>
      <path class="cls-1" d="M69.3,51.5l-16.4-9.4-6,10.4,6.1,10.5,16.3-9.5v-2h0Z"/>
      <path class="cls-1" d="M91.3,26.8h-29.6l-6.1,10.5,16.4,9.4c1.2-1,2.8-1.5,4.5-1.5,4,0,7.3,3.3,7.3,7.3s-3.3,7.3-7.3,7.3-3.2-.6-4.4-1.5l-16.3,9.5,6,10.4h29.6l14.8-25.6-14.8-25.6h0l-.1-.2Z"/>
    </g>
    <g>
      <path class="cls-1" d="M128.2,78l-7.7-7.7v-35.8l7.7-7.7h28.6l7.7,7.7v9.5h-12.6v-4.9l-2.5-2.4h-13.4l-2.5,2.4v26.5l2.5,2.5h10.9l6.7-5.9v-1.8h-9.4v-9.9h21.1v27.5h-11v-4.6l-5.1,4.6h-21Z"/>
      <path class="cls-1" d="M174.3,78V26.8h34.9l7.8,7.7v18.3l-5.8,5.8,7.8,19.3h-13.1l-6.7-17.4h-11.8v17.4h-13l-.1.1ZM187.3,50.7h14.6l2.4-2.4v-9.2l-2.4-2.4h-14.6v14h0Z"/>
      <path class="cls-1" d="M225.8,78V26.8h38.9v10.6h-25.9v9.5h23.4v9.8h-23.4v10.8h25.9v10.6h-38.9v-.1Z"/>
      <path class="cls-1" d="M285.3,78v-20.2l-17.1-31h14.9l7.4,16.9h2.5l7.4-16.9h14.9l-17.1,31v20.2h-12.9,0Z"/>
      <path class="cls-1" d="M320.2,78V26.8h33.4l10.6,10.6v30l-10.6,10.6h-33.4ZM333.2,68.2h14.8l3.7-3.7v-24.1l-3.7-3.7h-14.8v31.5h0Z"/>
      <path class="cls-1" d="M427,78v-40.6h-14.3v-10.6h41.6v10.6h-14.3v40.6h-13Z"/>
      <path class="cls-1" d="M449.4,78l15-51.2h21.1l15,51.2h-13.8l-2.6-10.2h-18.5l-2.6,10.2h-13.8.2ZM468.3,57.8h13.3l-5.4-21.2h-2.5l-5.4,21.2h0Z"/>
      <path class="cls-1" d="M366.6,78l15-51.2h21.1l15,51.2h-13.8l-2.6-10.2h-18.5l-2.6,10.2h-13.8.2ZM385.5,57.8h13.3l-5.4-21.2h-2.5l-5.4,21.2h0Z"/>
    </g>
  </g>
</svg>