<?xml version="1.0" encoding="UTF-8"?>
<svg xmlns="http://www.w3.org/2000/svg" version="1.1" viewBox="0 0 538.7 367.7">
  <defs>
    <style>
      .cls-1 {
        stroke: #00fe84;
      }

      .cls-1, .cls-2 {
        fill: none;
        stroke-linecap: round;
        stroke-linejoin: round;
        stroke-width: 13.8px;
      }

      .cls-3 {
        fill: #fff;
      }

      .cls-2 {
        stroke: #fff;
      }
    </style>
  </defs>
  <!-- Generator: Adobe Illustrator 28.7.1, SVG Export Plug-In . SVG Version: 1.2.0 Build 142)  -->
  <g>
    <g id="Layer_1">
      <g>
        <g>
          <line class="cls-1" x1="152.3" y1="159.5" x2="152.3" y2="220.7"/>
          <polyline class="cls-1" points="176.4 147.4 225.4 175.7 298.5 133.5 298.5 49.1 225.4 6.9 152.3 49.1 152.3 122.3"/>
          <polyline class="cls-1" points="176.4 174.2 176.4 147.4 200.4 132.8"/>
        </g>
        <polyline class="cls-2" points="421.1 110.7 450.7 128.2 450.7 145.7 421.1 163.2"/>
        <polyline class="cls-2" points="116.8 69.1 83.6 88.2 83.6 173.8 116.1 192.5"/>
        <polyline class="cls-2" points="176.4 209.7 176.4 228.7 225.1 255.6 262.5 233.8 262.2 194.1"/>
        <polyline class="cls-2" points="298.9 171.8 298.9 192.7 333.9 213.2 385.1 182.6 385.1 99.4 334.7 70.5"/>
      </g>
      <g>
        <path class="cls-3" d="M0,366.7v-66h26c5,0,9.3,1,12.8,2.9,3.5,1.9,6.2,4.5,8.1,7.9,1.9,3.4,2.8,7.2,2.8,11.6s-.9,8.2-2.8,11.6-4.6,6-8.2,7.8-7.9,2.8-13,2.8H9.1v-11.2h14.3c2.7,0,4.9-.5,6.7-1.4s3.1-2.2,3.9-3.9,1.3-3.6,1.3-5.8-.4-4.1-1.3-5.8-2.2-2.9-3.9-3.8c-1.8-.9-4-1.4-6.7-1.4h-9.4v54.6H0Z"/>
        <path class="cls-3" d="M72.2,300.7v66h-13.7v-66h13.7Z"/>
        <path class="cls-3" d="M97.3,367.6c-3.2,0-6-.6-8.4-1.7-2.5-1.1-4.4-2.8-5.8-4.9s-2.1-4.9-2.1-8.2.5-5.1,1.5-6.9,2.4-3.4,4.1-4.5,3.7-2,5.9-2.6,4.6-1,7-1.2c2.9-.3,5.2-.6,7-.9,1.8-.3,3-.7,3.8-1.2s1.2-1.3,1.2-2.4v-.2c0-2-.6-3.6-1.9-4.7-1.3-1.1-3.1-1.7-5.4-1.7s-4.4.5-5.9,1.6-2.4,2.4-2.9,4.1l-12.7-1c.6-3,1.9-5.6,3.8-7.8,1.9-2.2,4.3-3.9,7.3-5.1s6.5-1.8,10.4-1.8,5.4.3,7.9,1,4.8,1.6,6.7,3,3.5,3.1,4.7,5.2c1.1,2.1,1.7,4.6,1.7,7.6v33.4h-13v-6.9h-.4c-.8,1.5-1.9,2.9-3.2,4.1s-2.9,2.1-4.8,2.7c-1.9.7-4,1-6.5,1ZM101.2,358.1c2,0,3.8-.4,5.3-1.2s2.8-1.9,3.6-3.3c.9-1.4,1.3-2.9,1.3-4.7v-5.3c-.4.3-1,.5-1.8.8-.7.2-1.6.4-2.5.6-.9.2-1.8.3-2.8.5-.9.1-1.8.3-2.5.4-1.6.2-3,.6-4.2,1.1s-2.1,1.2-2.8,2.1-1,1.9-1,3.2c0,1.9.7,3.3,2,4.3s3.1,1.5,5.2,1.5Z"/>
        <path class="cls-3" d="M162.2,317.2v10.3h-29.8v-10.3h29.8ZM139.1,305.3h13.7v46.1c0,1.3.2,2.3.6,2.9s.9,1.2,1.6,1.5c.7.3,1.5.4,2.4.4s1.3,0,1.9-.2,1.1-.2,1.5-.3l2.2,10.2c-.7.2-1.7.5-2.9.8-1.2.3-2.8.5-4.5.5-3.3.1-6.2-.3-8.7-1.3s-4.4-2.6-5.8-4.7c-1.4-2.1-2.1-4.8-2-8.1v-48Z"/>
        <path class="cls-3" d="M197.7,317.2v10.3h-30.5v-10.3h30.5ZM174.2,366.7v-53.1c0-3.6.7-6.6,2.1-8.9s3.3-4.1,5.8-5.3c2.4-1.2,5.2-1.8,8.3-1.8s4,.2,5.8.5c1.8.3,3.1.6,3.9.9l-2.4,10.3c-.5-.2-1.2-.3-2-.5-.8-.2-1.6-.2-2.4-.2-2,0-3.4.5-4.2,1.4s-1.2,2.2-1.2,3.9v52.8h-13.7Z"/>
        <path class="cls-3" d="M228.5,367.7c-5,0-9.3-1.1-13-3.2s-6.5-5.1-8.4-9-3-8.3-3-13.4,1-9.6,3-13.4,4.8-6.8,8.4-9c3.6-2.1,8-3.2,13-3.2s9.3,1.1,13,3.2c3.6,2.1,6.5,5.1,8.4,9s3,8.3,3,13.4-1,9.5-3,13.4-4.8,6.8-8.4,9-8,3.2-13,3.2ZM228.5,357c2.3,0,4.2-.6,5.7-1.9s2.7-3.1,3.5-5.3c.8-2.3,1.2-4.8,1.2-7.7s-.4-5.4-1.2-7.7-1.9-4-3.5-5.3c-1.5-1.3-3.4-2-5.7-2s-4.2.7-5.8,2c-1.6,1.3-2.7,3.1-3.5,5.3s-1.2,4.8-1.2,7.7.4,5.4,1.2,7.7c.8,2.3,2,4,3.5,5.3s3.5,1.9,5.8,1.9Z"/>
        <path class="cls-3" d="M261.8,366.7v-49.5h13.3v8.6h.5c.9-3.1,2.4-5.4,4.5-7s4.6-2.4,7.3-2.4,1.4,0,2.2.1,1.5.2,2.1.4v12.2c-.6-.2-1.5-.4-2.7-.5-1.1-.1-2.2-.2-3.1-.2-2,0-3.8.4-5.4,1.3s-2.8,2.1-3.7,3.6-1.4,3.3-1.4,5.3v28h-13.7Z"/>
        <path class="cls-3" d="M298.9,366.7v-49.5h13.1v8.7h.6c1-2.9,2.8-5.2,5.2-6.9s5.3-2.5,8.6-2.5,6.3.8,8.7,2.5c2.4,1.7,4,4,4.8,6.8h.5c1-2.8,2.8-5.1,5.5-6.8s5.8-2.6,9.4-2.6,8.4,1.5,11.3,4.4,4.3,7.1,4.3,12.5v33.3h-13.7v-30.6c0-2.8-.7-4.8-2.2-6.2-1.5-1.4-3.3-2.1-5.5-2.1s-4.4.8-5.8,2.4-2.1,3.7-2.1,6.2v30.2h-13.3v-30.9c0-2.4-.7-4.4-2.1-5.8-1.4-1.4-3.2-2.2-5.5-2.2s-2.9.4-4.1,1.1c-1.2.8-2.2,1.8-2.9,3.2s-1.1,3-1.1,4.8v29.7h-13.7Z"/>
        <path class="cls-3" d="M395.8,367.6c-3.2,0-6-.6-8.4-1.7-2.5-1.1-4.4-2.8-5.8-4.9s-2.1-4.9-2.1-8.2.5-5.1,1.5-6.9,2.4-3.4,4.1-4.5,3.7-2,5.9-2.6,4.6-1,7-1.2c2.9-.3,5.2-.6,7-.9,1.8-.3,3-.7,3.8-1.2s1.2-1.3,1.2-2.4v-.2c0-2-.6-3.6-1.9-4.7-1.3-1.1-3.1-1.7-5.4-1.7s-4.4.5-5.9,1.6-2.4,2.4-2.9,4.1l-12.7-1c.6-3,1.9-5.6,3.8-7.8,1.9-2.2,4.3-3.9,7.3-5.1s6.5-1.8,10.4-1.8,5.4.3,7.9,1,4.8,1.6,6.7,3,3.5,3.1,4.7,5.2c1.1,2.1,1.7,4.6,1.7,7.6v33.4h-13v-6.9h-.4c-.8,1.5-1.9,2.9-3.2,4.1s-2.9,2.1-4.8,2.7c-1.9.7-4,1-6.5,1ZM399.7,358.1c2,0,3.8-.4,5.3-1.2s2.8-1.9,3.6-3.3c.9-1.4,1.3-2.9,1.3-4.7v-5.3c-.4.3-1,.5-1.8.8-.7.2-1.6.4-2.5.6-.9.2-1.8.3-2.8.5-.9.1-1.8.3-2.5.4-1.6.2-3,.6-4.2,1.1s-2.1,1.2-2.8,2.1-1,1.9-1,3.2c0,1.9.7,3.3,2,4.3s3.1,1.5,5.2,1.5Z"/>
        <path class="cls-3" d="M460.6,317.2v10.3h-29.8v-10.3h29.8ZM437.6,305.3h13.7v46.1c0,1.3.2,2.3.6,2.9s.9,1.2,1.6,1.5c.7.3,1.5.4,2.4.4s1.3,0,1.9-.2,1.1-.2,1.5-.3l2.2,10.2c-.7.2-1.7.5-2.9.8-1.2.3-2.8.5-4.5.5-3.3.1-6.2-.3-8.7-1.3s-4.4-2.6-5.8-4.7c-1.4-2.1-2.1-4.8-2-8.1v-48Z"/>
        <path class="cls-3" d="M476.4,310.8c-2,0-3.8-.7-5.2-2s-2.2-3-2.2-4.9.7-3.5,2.2-4.9c1.5-1.4,3.2-2,5.2-2s3.8.7,5.2,2,2.2,3,2.2,4.9-.7,3.6-2.2,4.9-3.2,2-5.2,2ZM469.6,366.7v-49.5h13.7v49.5h-13.7Z"/>
        <path class="cls-3" d="M516.6,367.7c-5.1,0-9.4-1.1-13.1-3.2s-6.4-5.2-8.4-9c-1.9-3.8-2.9-8.3-2.9-13.3s1-9.5,2.9-13.4,4.8-6.8,8.4-9c3.6-2.2,7.9-3.2,13-3.2s8.1.8,11.3,2.4c3.2,1.6,5.8,3.8,7.7,6.6,1.9,2.8,2.9,6.2,3.1,10h-13c-.4-2.5-1.3-4.5-2.9-6s-3.6-2.3-6.1-2.3-4,.6-5.6,1.7-2.8,2.8-3.7,5-1.3,4.8-1.3,8,.4,5.8,1.3,8.1,2.1,3.9,3.7,5.1,3.4,1.7,5.6,1.7,3-.3,4.2-1c1.3-.6,2.3-1.6,3.1-2.8s1.4-2.7,1.6-4.5h13c-.2,3.8-1.2,7.1-3.1,10s-4.4,5.1-7.6,6.7-7,2.4-11.4,2.4Z"/>
      </g>
    </g>
  </g>
</svg>